%TF.GenerationSoftware,KiCad,Pcbnew,9.0.7*%
%TF.CreationDate,2026-03-23T03:43:42-04:00*%
%TF.ProjectId,cristar_sensor_board,63726973-7461-4725-9f73-656e736f725f,rev?*%
%TF.SameCoordinates,Original*%
%TF.FileFunction,Copper,L1,Top*%
%TF.FilePolarity,Positive*%
%FSLAX46Y46*%
G04 Gerber Fmt 4.6, Leading zero omitted, Abs format (unit mm)*
G04 Created by KiCad (PCBNEW 9.0.7) date 2026-03-23 03:43:42*
%MOMM*%
%LPD*%
G01*
G04 APERTURE LIST*
G04 Aperture macros list*
%AMRoundRect*
0 Rectangle with rounded corners*
0 $1 Rounding radius*
0 $2 $3 $4 $5 $6 $7 $8 $9 X,Y pos of 4 corners*
0 Add a 4 corners polygon primitive as box body*
4,1,4,$2,$3,$4,$5,$6,$7,$8,$9,$2,$3,0*
0 Add four circle primitives for the rounded corners*
1,1,$1+$1,$2,$3*
1,1,$1+$1,$4,$5*
1,1,$1+$1,$6,$7*
1,1,$1+$1,$8,$9*
0 Add four rect primitives between the rounded corners*
20,1,$1+$1,$2,$3,$4,$5,0*
20,1,$1+$1,$4,$5,$6,$7,0*
20,1,$1+$1,$6,$7,$8,$9,0*
20,1,$1+$1,$8,$9,$2,$3,0*%
G04 Aperture macros list end*
%TA.AperFunction,SMDPad,CuDef*%
%ADD10RoundRect,0.250000X0.337500X0.475000X-0.337500X0.475000X-0.337500X-0.475000X0.337500X-0.475000X0*%
%TD*%
%TA.AperFunction,SMDPad,CuDef*%
%ADD11RoundRect,0.250000X-0.337500X-0.475000X0.337500X-0.475000X0.337500X0.475000X-0.337500X0.475000X0*%
%TD*%
%TA.AperFunction,WasherPad*%
%ADD12C,5.300000*%
%TD*%
%TA.AperFunction,ComponentPad*%
%ADD13C,1.700000*%
%TD*%
%TA.AperFunction,ComponentPad*%
%ADD14C,1.778000*%
%TD*%
%TA.AperFunction,ComponentPad*%
%ADD15R,1.473200X1.473200*%
%TD*%
%TA.AperFunction,ComponentPad*%
%ADD16C,1.473200*%
%TD*%
%TA.AperFunction,Conductor*%
%ADD17C,0.500000*%
%TD*%
%TA.AperFunction,Conductor*%
%ADD18C,0.200000*%
%TD*%
G04 APERTURE END LIST*
D10*
%TO.P,C2,1*%
%TO.N,3V3*%
X130757500Y-104000000D03*
%TO.P,C2,2*%
%TO.N,GND*%
X128682500Y-104000000D03*
%TD*%
D11*
%TO.P,C1,1*%
%TO.N,3V3*%
X160212500Y-101500000D03*
%TO.P,C1,2*%
%TO.N,GND*%
X162287500Y-101500000D03*
%TD*%
D12*
%TO.P,U2,*%
%TO.N,*%
X124640000Y-84933000D03*
X144960000Y-84933000D03*
X144960000Y-105253000D03*
D13*
%TO.P,U2,1,GND*%
%TO.N,GND*%
X128450000Y-106523000D03*
%TO.P,U2,2,VIN*%
%TO.N,3V3*%
X130990000Y-106523000D03*
%TO.P,U2,3,SDA*%
%TO.N,SDA*%
X133530000Y-106523000D03*
%TO.P,U2,4,SCL*%
%TO.N,SCL*%
X136070000Y-106523000D03*
%TO.P,U2,5,CS*%
%TO.N,unconnected-(U2-CS-Pad5)*%
X138610000Y-106523000D03*
%TO.P,U2,6,ADR*%
%TO.N,unconnected-(U2-ADR-Pad6)*%
X141150000Y-106523000D03*
%TD*%
D12*
%TO.P,U1,*%
%TO.N,*%
X155040000Y-86203000D03*
X155040000Y-103983000D03*
X175360000Y-86203000D03*
X175360000Y-103983000D03*
D14*
%TO.P,U1,JP1_1,VIN*%
%TO.N,3V3*%
X158850000Y-103983000D03*
%TO.P,U1,JP1_2,3VO*%
%TO.N,unconnected-(U1-3VO-PadJP1_2)*%
X161390000Y-103983000D03*
%TO.P,U1,JP1_3,GND*%
%TO.N,GND*%
X163930000Y-103983000D03*
%TO.P,U1,JP1_4,SCL*%
%TO.N,SCL*%
X166470000Y-103983000D03*
%TO.P,U1,JP1_5,SDA*%
%TO.N,SDA*%
X169010000Y-103983000D03*
%TO.P,U1,JP1_6,~{INT}*%
%TO.N,unconnected-(U1-~{INT}-PadJP1_6)*%
X171550000Y-103983000D03*
%TO.P,U1,JP2_1,BT*%
%TO.N,unconnected-(U1-BT-PadJP2_1)*%
X158850000Y-86203000D03*
%TO.P,U1,JP2_2,P0*%
%TO.N,unconnected-(U1-P0-PadJP2_2)*%
X161390000Y-86203000D03*
%TO.P,U1,JP2_3,P1*%
%TO.N,unconnected-(U1-P1-PadJP2_3)*%
X163930000Y-86203000D03*
%TO.P,U1,JP2_4,~{RST}*%
%TO.N,unconnected-(U1-~{RST}-PadJP2_4)*%
X166470000Y-86203000D03*
%TO.P,U1,JP2_5,DI*%
%TO.N,unconnected-(U1-DI-PadJP2_5)*%
X169010000Y-86203000D03*
%TO.P,U1,JP2_6,CS*%
%TO.N,unconnected-(U1-CS-PadJP2_6)*%
X171550000Y-86203000D03*
%TD*%
D15*
%TO.P,J1,1,Pin_1*%
%TO.N,3V3*%
X125870000Y-116016000D03*
D16*
%TO.P,J1,2,Pin_2*%
%TO.N,unconnected-(J1-Pin_2-Pad2)*%
X125870000Y-113476000D03*
%TO.P,J1,3,Pin_3*%
%TO.N,SDA*%
X128410000Y-116016000D03*
%TO.P,J1,4,Pin_4*%
%TO.N,unconnected-(J1-Pin_4-Pad4)*%
X128410000Y-113476000D03*
%TO.P,J1,5,Pin_5*%
%TO.N,SCL*%
X130950000Y-116016000D03*
%TO.P,J1,6,Pin_6*%
%TO.N,GND*%
X130950000Y-113476000D03*
%TO.P,J1,7,Pin_7*%
%TO.N,unconnected-(J1-Pin_7-Pad7)*%
X133490000Y-116016000D03*
%TO.P,J1,8,Pin_8*%
%TO.N,unconnected-(J1-Pin_8-Pad8)*%
X133490000Y-113476000D03*
%TO.P,J1,9,Pin_9*%
%TO.N,GND*%
X136030000Y-116016000D03*
%TO.P,J1,10,Pin_10*%
%TO.N,unconnected-(J1-Pin_10-Pad10)*%
X136030000Y-113476000D03*
%TO.P,J1,11,Pin_11*%
%TO.N,unconnected-(J1-Pin_11-Pad11)*%
X138570000Y-116016000D03*
%TO.P,J1,12,Pin_12*%
%TO.N,unconnected-(J1-Pin_12-Pad12)*%
X138570000Y-113476000D03*
%TO.P,J1,13,Pin_13*%
%TO.N,unconnected-(J1-Pin_13-Pad13)*%
X141110000Y-116016000D03*
%TO.P,J1,14,Pin_14*%
%TO.N,GND*%
X141110000Y-113476000D03*
%TO.P,J1,15,Pin_15*%
%TO.N,unconnected-(J1-Pin_15-Pad15)*%
X143650000Y-116016000D03*
%TO.P,J1,16,Pin_16*%
%TO.N,unconnected-(J1-Pin_16-Pad16)*%
X143650000Y-113476000D03*
%TO.P,J1,17,Pin_17*%
%TO.N,unconnected-(J1-Pin_17-Pad17)*%
X146190000Y-116016000D03*
%TO.P,J1,18,Pin_18*%
%TO.N,unconnected-(J1-Pin_18-Pad18)*%
X146190000Y-113476000D03*
%TO.P,J1,19,Pin_19*%
%TO.N,unconnected-(J1-Pin_19-Pad19)*%
X148730000Y-116016000D03*
%TO.P,J1,20,Pin_20*%
%TO.N,GND*%
X148730000Y-113476000D03*
%TO.P,J1,21,Pin_21*%
%TO.N,unconnected-(J1-Pin_21-Pad21)*%
X151270000Y-116016000D03*
%TO.P,J1,22,Pin_22*%
%TO.N,unconnected-(J1-Pin_22-Pad22)*%
X151270000Y-113476000D03*
%TO.P,J1,23,Pin_23*%
%TO.N,unconnected-(J1-Pin_23-Pad23)*%
X153810000Y-116016000D03*
%TO.P,J1,24,Pin_24*%
%TO.N,unconnected-(J1-Pin_24-Pad24)*%
X153810000Y-113476000D03*
%TO.P,J1,25,Pin_25*%
%TO.N,GND*%
X156350000Y-116016000D03*
%TO.P,J1,26,Pin_26*%
%TO.N,unconnected-(J1-Pin_26-Pad26)*%
X156350000Y-113476000D03*
%TO.P,J1,27,Pin_27*%
%TO.N,unconnected-(J1-Pin_27-Pad27)*%
X158890000Y-116016000D03*
%TO.P,J1,28,Pin_28*%
%TO.N,unconnected-(J1-Pin_28-Pad28)*%
X158890000Y-113476000D03*
%TO.P,J1,29,Pin_29*%
%TO.N,unconnected-(J1-Pin_29-Pad29)*%
X161430000Y-116016000D03*
%TO.P,J1,30,Pin_30*%
%TO.N,GND*%
X161430000Y-113476000D03*
%TO.P,J1,31,Pin_31*%
%TO.N,unconnected-(J1-Pin_31-Pad31)*%
X163970000Y-116016000D03*
%TO.P,J1,32,Pin_32*%
%TO.N,unconnected-(J1-Pin_32-Pad32)*%
X163970000Y-113476000D03*
%TO.P,J1,33,Pin_33*%
%TO.N,unconnected-(J1-Pin_33-Pad33)*%
X166510000Y-116016000D03*
%TO.P,J1,34,Pin_34*%
%TO.N,GND*%
X166510000Y-113476000D03*
%TO.P,J1,35,Pin_35*%
%TO.N,unconnected-(J1-Pin_35-Pad35)*%
X169050000Y-116016000D03*
%TO.P,J1,36,Pin_36*%
%TO.N,unconnected-(J1-Pin_36-Pad36)*%
X169050000Y-113476000D03*
%TO.P,J1,37,Pin_37*%
%TO.N,unconnected-(J1-Pin_37-Pad37)*%
X171590000Y-116016000D03*
%TO.P,J1,38,Pin_38*%
%TO.N,unconnected-(J1-Pin_38-Pad38)*%
X171590000Y-113476000D03*
%TO.P,J1,39,Pin_39*%
%TO.N,GND*%
X174130000Y-116016000D03*
%TO.P,J1,40,Pin_40*%
%TO.N,unconnected-(J1-Pin_40-Pad40)*%
X174130000Y-113476000D03*
%TD*%
D17*
%TO.N,GND*%
X128450000Y-104232500D02*
X128682500Y-104000000D01*
X163930000Y-103983000D02*
X163930000Y-103180000D01*
X128450000Y-106523000D02*
X128450000Y-104232500D01*
X163930000Y-103180000D02*
X162287500Y-101537500D01*
X162287500Y-101537500D02*
X162287500Y-101500000D01*
D18*
%TO.N,SCL*%
X169953000Y-100500000D02*
X166470000Y-103983000D01*
X138047000Y-108500000D02*
X176000000Y-108500000D01*
X132250000Y-110343000D02*
X136070000Y-106523000D01*
X136070000Y-106523000D02*
X138047000Y-108500000D01*
X130950000Y-116016000D02*
X132250000Y-114716000D01*
X178750000Y-102000000D02*
X177250000Y-100500000D01*
X176000000Y-108500000D02*
X178750000Y-105750000D01*
X178750000Y-105750000D02*
X178750000Y-102000000D01*
X177250000Y-100500000D02*
X169953000Y-100500000D01*
X132250000Y-114716000D02*
X132250000Y-110343000D01*
D17*
%TO.N,3V3*%
X124250000Y-113250000D02*
X130977000Y-106523000D01*
X160212500Y-101537500D02*
X158850000Y-102900000D01*
X130990000Y-106523000D02*
X130990000Y-104232500D01*
X130990000Y-104232500D02*
X130757500Y-104000000D01*
X134007500Y-100750000D02*
X159462500Y-100750000D01*
X124250000Y-114396000D02*
X124250000Y-113250000D01*
X130757500Y-104000000D02*
X134007500Y-100750000D01*
X160212500Y-101500000D02*
X160212500Y-101537500D01*
X130977000Y-106523000D02*
X130990000Y-106523000D01*
X158850000Y-102900000D02*
X158850000Y-103983000D01*
X159462500Y-100750000D02*
X160212500Y-101500000D01*
X125870000Y-116016000D02*
X124250000Y-114396000D01*
D18*
%TO.N,SDA*%
X165493000Y-107500000D02*
X169010000Y-103983000D01*
X133530000Y-106523000D02*
X138303000Y-101750000D01*
X147750000Y-101750000D02*
X153500000Y-107500000D01*
X153500000Y-107500000D02*
X165493000Y-107500000D01*
X138303000Y-101750000D02*
X147750000Y-101750000D01*
X129750000Y-110303000D02*
X133530000Y-106523000D01*
X128410000Y-116016000D02*
X129750000Y-114676000D01*
X129750000Y-114676000D02*
X129750000Y-110303000D01*
%TD*%
M02*
