%TF.GenerationSoftware,KiCad,Pcbnew,9.0.7*%
%TF.CreationDate,2026-03-23T03:43:42-04:00*%
%TF.ProjectId,cristar_sensor_board,63726973-7461-4725-9f73-656e736f725f,rev?*%
%TF.SameCoordinates,Original*%
%TF.FileFunction,Copper,L2,Bot*%
%TF.FilePolarity,Positive*%
%FSLAX46Y46*%
G04 Gerber Fmt 4.6, Leading zero omitted, Abs format (unit mm)*
G04 Created by KiCad (PCBNEW 9.0.7) date 2026-03-23 03:43:42*
%MOMM*%
%LPD*%
G01*
G04 APERTURE LIST*
%TA.AperFunction,ComponentPad*%
%ADD10C,1.700000*%
%TD*%
%TA.AperFunction,ComponentPad*%
%ADD11C,1.778000*%
%TD*%
%TA.AperFunction,ComponentPad*%
%ADD12R,1.473200X1.473200*%
%TD*%
%TA.AperFunction,ComponentPad*%
%ADD13C,1.473200*%
%TD*%
G04 APERTURE END LIST*
D10*
%TO.P,U2,1,GND*%
%TO.N,GND*%
X128450000Y-106523000D03*
%TO.P,U2,2,VIN*%
%TO.N,3V3*%
X130990000Y-106523000D03*
%TO.P,U2,3,SDA*%
%TO.N,SDA*%
X133530000Y-106523000D03*
%TO.P,U2,4,SCL*%
%TO.N,SCL*%
X136070000Y-106523000D03*
%TO.P,U2,5,CS*%
%TO.N,unconnected-(U2-CS-Pad5)*%
X138610000Y-106523000D03*
%TO.P,U2,6,ADR*%
%TO.N,unconnected-(U2-ADR-Pad6)*%
X141150000Y-106523000D03*
%TD*%
D11*
%TO.P,U1,JP1_1,VIN*%
%TO.N,3V3*%
X158850000Y-103983000D03*
%TO.P,U1,JP1_2,3VO*%
%TO.N,unconnected-(U1-3VO-PadJP1_2)*%
X161390000Y-103983000D03*
%TO.P,U1,JP1_3,GND*%
%TO.N,GND*%
X163930000Y-103983000D03*
%TO.P,U1,JP1_4,SCL*%
%TO.N,SCL*%
X166470000Y-103983000D03*
%TO.P,U1,JP1_5,SDA*%
%TO.N,SDA*%
X169010000Y-103983000D03*
%TO.P,U1,JP1_6,~{INT}*%
%TO.N,unconnected-(U1-~{INT}-PadJP1_6)*%
X171550000Y-103983000D03*
%TO.P,U1,JP2_1,BT*%
%TO.N,unconnected-(U1-BT-PadJP2_1)*%
X158850000Y-86203000D03*
%TO.P,U1,JP2_2,P0*%
%TO.N,unconnected-(U1-P0-PadJP2_2)*%
X161390000Y-86203000D03*
%TO.P,U1,JP2_3,P1*%
%TO.N,unconnected-(U1-P1-PadJP2_3)*%
X163930000Y-86203000D03*
%TO.P,U1,JP2_4,~{RST}*%
%TO.N,unconnected-(U1-~{RST}-PadJP2_4)*%
X166470000Y-86203000D03*
%TO.P,U1,JP2_5,DI*%
%TO.N,unconnected-(U1-DI-PadJP2_5)*%
X169010000Y-86203000D03*
%TO.P,U1,JP2_6,CS*%
%TO.N,unconnected-(U1-CS-PadJP2_6)*%
X171550000Y-86203000D03*
%TD*%
D12*
%TO.P,J1,1,Pin_1*%
%TO.N,3V3*%
X125870000Y-116016000D03*
D13*
%TO.P,J1,2,Pin_2*%
%TO.N,unconnected-(J1-Pin_2-Pad2)*%
X125870000Y-113476000D03*
%TO.P,J1,3,Pin_3*%
%TO.N,SDA*%
X128410000Y-116016000D03*
%TO.P,J1,4,Pin_4*%
%TO.N,unconnected-(J1-Pin_4-Pad4)*%
X128410000Y-113476000D03*
%TO.P,J1,5,Pin_5*%
%TO.N,SCL*%
X130950000Y-116016000D03*
%TO.P,J1,6,Pin_6*%
%TO.N,GND*%
X130950000Y-113476000D03*
%TO.P,J1,7,Pin_7*%
%TO.N,unconnected-(J1-Pin_7-Pad7)*%
X133490000Y-116016000D03*
%TO.P,J1,8,Pin_8*%
%TO.N,unconnected-(J1-Pin_8-Pad8)*%
X133490000Y-113476000D03*
%TO.P,J1,9,Pin_9*%
%TO.N,GND*%
X136030000Y-116016000D03*
%TO.P,J1,10,Pin_10*%
%TO.N,unconnected-(J1-Pin_10-Pad10)*%
X136030000Y-113476000D03*
%TO.P,J1,11,Pin_11*%
%TO.N,unconnected-(J1-Pin_11-Pad11)*%
X138570000Y-116016000D03*
%TO.P,J1,12,Pin_12*%
%TO.N,unconnected-(J1-Pin_12-Pad12)*%
X138570000Y-113476000D03*
%TO.P,J1,13,Pin_13*%
%TO.N,unconnected-(J1-Pin_13-Pad13)*%
X141110000Y-116016000D03*
%TO.P,J1,14,Pin_14*%
%TO.N,GND*%
X141110000Y-113476000D03*
%TO.P,J1,15,Pin_15*%
%TO.N,unconnected-(J1-Pin_15-Pad15)*%
X143650000Y-116016000D03*
%TO.P,J1,16,Pin_16*%
%TO.N,unconnected-(J1-Pin_16-Pad16)*%
X143650000Y-113476000D03*
%TO.P,J1,17,Pin_17*%
%TO.N,unconnected-(J1-Pin_17-Pad17)*%
X146190000Y-116016000D03*
%TO.P,J1,18,Pin_18*%
%TO.N,unconnected-(J1-Pin_18-Pad18)*%
X146190000Y-113476000D03*
%TO.P,J1,19,Pin_19*%
%TO.N,unconnected-(J1-Pin_19-Pad19)*%
X148730000Y-116016000D03*
%TO.P,J1,20,Pin_20*%
%TO.N,GND*%
X148730000Y-113476000D03*
%TO.P,J1,21,Pin_21*%
%TO.N,unconnected-(J1-Pin_21-Pad21)*%
X151270000Y-116016000D03*
%TO.P,J1,22,Pin_22*%
%TO.N,unconnected-(J1-Pin_22-Pad22)*%
X151270000Y-113476000D03*
%TO.P,J1,23,Pin_23*%
%TO.N,unconnected-(J1-Pin_23-Pad23)*%
X153810000Y-116016000D03*
%TO.P,J1,24,Pin_24*%
%TO.N,unconnected-(J1-Pin_24-Pad24)*%
X153810000Y-113476000D03*
%TO.P,J1,25,Pin_25*%
%TO.N,GND*%
X156350000Y-116016000D03*
%TO.P,J1,26,Pin_26*%
%TO.N,unconnected-(J1-Pin_26-Pad26)*%
X156350000Y-113476000D03*
%TO.P,J1,27,Pin_27*%
%TO.N,unconnected-(J1-Pin_27-Pad27)*%
X158890000Y-116016000D03*
%TO.P,J1,28,Pin_28*%
%TO.N,unconnected-(J1-Pin_28-Pad28)*%
X158890000Y-113476000D03*
%TO.P,J1,29,Pin_29*%
%TO.N,unconnected-(J1-Pin_29-Pad29)*%
X161430000Y-116016000D03*
%TO.P,J1,30,Pin_30*%
%TO.N,GND*%
X161430000Y-113476000D03*
%TO.P,J1,31,Pin_31*%
%TO.N,unconnected-(J1-Pin_31-Pad31)*%
X163970000Y-116016000D03*
%TO.P,J1,32,Pin_32*%
%TO.N,unconnected-(J1-Pin_32-Pad32)*%
X163970000Y-113476000D03*
%TO.P,J1,33,Pin_33*%
%TO.N,unconnected-(J1-Pin_33-Pad33)*%
X166510000Y-116016000D03*
%TO.P,J1,34,Pin_34*%
%TO.N,GND*%
X166510000Y-113476000D03*
%TO.P,J1,35,Pin_35*%
%TO.N,unconnected-(J1-Pin_35-Pad35)*%
X169050000Y-116016000D03*
%TO.P,J1,36,Pin_36*%
%TO.N,unconnected-(J1-Pin_36-Pad36)*%
X169050000Y-113476000D03*
%TO.P,J1,37,Pin_37*%
%TO.N,unconnected-(J1-Pin_37-Pad37)*%
X171590000Y-116016000D03*
%TO.P,J1,38,Pin_38*%
%TO.N,unconnected-(J1-Pin_38-Pad38)*%
X171590000Y-113476000D03*
%TO.P,J1,39,Pin_39*%
%TO.N,GND*%
X174130000Y-116016000D03*
%TO.P,J1,40,Pin_40*%
%TO.N,unconnected-(J1-Pin_40-Pad40)*%
X174130000Y-113476000D03*
%TD*%
%TA.AperFunction,Conductor*%
%TO.N,GND*%
G36*
X134814710Y-113860672D02*
G01*
X134866187Y-113907916D01*
X134877931Y-113933633D01*
X134883535Y-113950882D01*
X134945336Y-114072172D01*
X134971938Y-114124382D01*
X135086393Y-114281916D01*
X135224084Y-114419607D01*
X135381618Y-114534062D01*
X135555119Y-114622465D01*
X135573176Y-114628332D01*
X135630849Y-114667767D01*
X135658048Y-114732125D01*
X135646135Y-114800972D01*
X135598892Y-114852448D01*
X135573178Y-114864192D01*
X135555308Y-114869998D01*
X135381877Y-114958366D01*
X135349467Y-114981913D01*
X135349466Y-114981913D01*
X135914798Y-115547244D01*
X135843723Y-115566289D01*
X135733677Y-115629824D01*
X135643824Y-115719677D01*
X135580289Y-115829723D01*
X135561244Y-115900797D01*
X134995913Y-115335466D01*
X134995913Y-115335467D01*
X134972366Y-115367877D01*
X134883998Y-115541308D01*
X134878192Y-115559178D01*
X134838753Y-115616853D01*
X134774394Y-115644049D01*
X134705548Y-115632133D01*
X134654073Y-115584888D01*
X134642333Y-115559181D01*
X134636465Y-115541119D01*
X134548062Y-115367618D01*
X134433607Y-115210084D01*
X134295916Y-115072393D01*
X134138382Y-114957938D01*
X134067563Y-114921854D01*
X133964882Y-114869535D01*
X133954756Y-114866245D01*
X133947632Y-114863930D01*
X133889957Y-114824494D01*
X133862758Y-114760136D01*
X133874672Y-114691290D01*
X133921916Y-114639813D01*
X133947631Y-114628069D01*
X133964881Y-114622465D01*
X134138382Y-114534062D01*
X134295916Y-114419607D01*
X134433607Y-114281916D01*
X134548062Y-114124382D01*
X134636465Y-113950881D01*
X134642069Y-113933632D01*
X134681506Y-113875957D01*
X134745864Y-113848758D01*
X134814710Y-113860672D01*
G37*
%TD.AperFunction*%
%TA.AperFunction,Conductor*%
G36*
X137354710Y-113860672D02*
G01*
X137406187Y-113907916D01*
X137417931Y-113933633D01*
X137423535Y-113950882D01*
X137485336Y-114072172D01*
X137511938Y-114124382D01*
X137626393Y-114281916D01*
X137764084Y-114419607D01*
X137921618Y-114534062D01*
X137999406Y-114573697D01*
X138095114Y-114622463D01*
X138095116Y-114622463D01*
X138095119Y-114622465D01*
X138112369Y-114628070D01*
X138170043Y-114667507D01*
X138197241Y-114731866D01*
X138185326Y-114800712D01*
X138138082Y-114852188D01*
X138112372Y-114863929D01*
X138104261Y-114866564D01*
X138095114Y-114869536D01*
X137921617Y-114957938D01*
X137764081Y-115072395D01*
X137626395Y-115210081D01*
X137511938Y-115367617D01*
X137423535Y-115541117D01*
X137417667Y-115559178D01*
X137378228Y-115616852D01*
X137313869Y-115644049D01*
X137245023Y-115632133D01*
X137193548Y-115584888D01*
X137181805Y-115559173D01*
X137175999Y-115541305D01*
X137087636Y-115367883D01*
X137064085Y-115335467D01*
X136498755Y-115900797D01*
X136479711Y-115829723D01*
X136416176Y-115719677D01*
X136326323Y-115629824D01*
X136216277Y-115566289D01*
X136145202Y-115547244D01*
X136710531Y-114981913D01*
X136710531Y-114981912D01*
X136678122Y-114958366D01*
X136504695Y-114870000D01*
X136486822Y-114864193D01*
X136429147Y-114824754D01*
X136401950Y-114760395D01*
X136413865Y-114691549D01*
X136461110Y-114640074D01*
X136486818Y-114628333D01*
X136504881Y-114622465D01*
X136678382Y-114534062D01*
X136835916Y-114419607D01*
X136973607Y-114281916D01*
X137088062Y-114124382D01*
X137176465Y-113950881D01*
X137182069Y-113933632D01*
X137221506Y-113875957D01*
X137285864Y-113848758D01*
X137354710Y-113860672D01*
G37*
%TD.AperFunction*%
%TA.AperFunction,Conductor*%
G36*
X155134710Y-113860672D02*
G01*
X155186187Y-113907916D01*
X155197931Y-113933633D01*
X155203535Y-113950882D01*
X155265336Y-114072172D01*
X155291938Y-114124382D01*
X155406393Y-114281916D01*
X155544084Y-114419607D01*
X155701618Y-114534062D01*
X155875119Y-114622465D01*
X155893176Y-114628332D01*
X155950849Y-114667767D01*
X155978048Y-114732125D01*
X155966135Y-114800972D01*
X155918892Y-114852448D01*
X155893178Y-114864192D01*
X155875308Y-114869998D01*
X155701877Y-114958366D01*
X155669467Y-114981913D01*
X155669466Y-114981913D01*
X156234798Y-115547244D01*
X156163723Y-115566289D01*
X156053677Y-115629824D01*
X155963824Y-115719677D01*
X155900289Y-115829723D01*
X155881244Y-115900797D01*
X155315913Y-115335466D01*
X155315913Y-115335467D01*
X155292366Y-115367877D01*
X155203998Y-115541308D01*
X155198192Y-115559178D01*
X155158753Y-115616853D01*
X155094394Y-115644049D01*
X155025548Y-115632133D01*
X154974073Y-115584888D01*
X154962333Y-115559181D01*
X154956465Y-115541119D01*
X154868062Y-115367618D01*
X154753607Y-115210084D01*
X154615916Y-115072393D01*
X154458382Y-114957938D01*
X154387563Y-114921854D01*
X154284882Y-114869535D01*
X154274756Y-114866245D01*
X154267632Y-114863930D01*
X154209957Y-114824494D01*
X154182758Y-114760136D01*
X154194672Y-114691290D01*
X154241916Y-114639813D01*
X154267631Y-114628069D01*
X154284881Y-114622465D01*
X154458382Y-114534062D01*
X154615916Y-114419607D01*
X154753607Y-114281916D01*
X154868062Y-114124382D01*
X154956465Y-113950881D01*
X154962069Y-113933632D01*
X155001506Y-113875957D01*
X155065864Y-113848758D01*
X155134710Y-113860672D01*
G37*
%TD.AperFunction*%
%TA.AperFunction,Conductor*%
G36*
X157674710Y-113860672D02*
G01*
X157726187Y-113907916D01*
X157737931Y-113933633D01*
X157743535Y-113950882D01*
X157805336Y-114072172D01*
X157831938Y-114124382D01*
X157946393Y-114281916D01*
X158084084Y-114419607D01*
X158241618Y-114534062D01*
X158319406Y-114573697D01*
X158415114Y-114622463D01*
X158415116Y-114622463D01*
X158415119Y-114622465D01*
X158432369Y-114628070D01*
X158490043Y-114667507D01*
X158517241Y-114731866D01*
X158505326Y-114800712D01*
X158458082Y-114852188D01*
X158432372Y-114863929D01*
X158424261Y-114866564D01*
X158415114Y-114869536D01*
X158241617Y-114957938D01*
X158084081Y-115072395D01*
X157946395Y-115210081D01*
X157831938Y-115367617D01*
X157743535Y-115541117D01*
X157737667Y-115559178D01*
X157698228Y-115616852D01*
X157633869Y-115644049D01*
X157565023Y-115632133D01*
X157513548Y-115584888D01*
X157501805Y-115559173D01*
X157495999Y-115541305D01*
X157407636Y-115367883D01*
X157384085Y-115335467D01*
X156818755Y-115900797D01*
X156799711Y-115829723D01*
X156736176Y-115719677D01*
X156646323Y-115629824D01*
X156536277Y-115566289D01*
X156465202Y-115547244D01*
X157030531Y-114981913D01*
X157030531Y-114981912D01*
X156998122Y-114958366D01*
X156824695Y-114870000D01*
X156806822Y-114864193D01*
X156749147Y-114824754D01*
X156721950Y-114760395D01*
X156733865Y-114691549D01*
X156781110Y-114640074D01*
X156806818Y-114628333D01*
X156824881Y-114622465D01*
X156998382Y-114534062D01*
X157155916Y-114419607D01*
X157293607Y-114281916D01*
X157408062Y-114124382D01*
X157496465Y-113950881D01*
X157502069Y-113933632D01*
X157541506Y-113875957D01*
X157605864Y-113848758D01*
X157674710Y-113860672D01*
G37*
%TD.AperFunction*%
%TA.AperFunction,Conductor*%
G36*
X172914710Y-113860672D02*
G01*
X172966187Y-113907916D01*
X172977931Y-113933633D01*
X172983535Y-113950882D01*
X173045336Y-114072172D01*
X173071938Y-114124382D01*
X173186393Y-114281916D01*
X173324084Y-114419607D01*
X173481618Y-114534062D01*
X173655119Y-114622465D01*
X173673176Y-114628332D01*
X173730849Y-114667767D01*
X173758048Y-114732125D01*
X173746135Y-114800972D01*
X173698892Y-114852448D01*
X173673178Y-114864192D01*
X173655308Y-114869998D01*
X173481877Y-114958366D01*
X173449467Y-114981913D01*
X173449466Y-114981913D01*
X174014798Y-115547244D01*
X173943723Y-115566289D01*
X173833677Y-115629824D01*
X173743824Y-115719677D01*
X173680289Y-115829723D01*
X173661244Y-115900797D01*
X173095913Y-115335466D01*
X173095913Y-115335467D01*
X173072366Y-115367877D01*
X172983998Y-115541308D01*
X172978192Y-115559178D01*
X172938753Y-115616853D01*
X172874394Y-115644049D01*
X172805548Y-115632133D01*
X172754073Y-115584888D01*
X172742333Y-115559181D01*
X172736465Y-115541119D01*
X172648062Y-115367618D01*
X172533607Y-115210084D01*
X172395916Y-115072393D01*
X172238382Y-114957938D01*
X172167563Y-114921854D01*
X172064882Y-114869535D01*
X172054756Y-114866245D01*
X172047632Y-114863930D01*
X171989957Y-114824494D01*
X171962758Y-114760136D01*
X171974672Y-114691290D01*
X172021916Y-114639813D01*
X172047631Y-114628069D01*
X172064881Y-114622465D01*
X172238382Y-114534062D01*
X172395916Y-114419607D01*
X172533607Y-114281916D01*
X172648062Y-114124382D01*
X172736465Y-113950881D01*
X172742069Y-113933632D01*
X172781506Y-113875957D01*
X172845864Y-113848758D01*
X172914710Y-113860672D01*
G37*
%TD.AperFunction*%
%TA.AperFunction,Conductor*%
G36*
X130500289Y-113662277D02*
G01*
X130563824Y-113772323D01*
X130653677Y-113862176D01*
X130763723Y-113925711D01*
X130834797Y-113944755D01*
X130269467Y-114510085D01*
X130301883Y-114533636D01*
X130475305Y-114621999D01*
X130493173Y-114627805D01*
X130550849Y-114667242D01*
X130578049Y-114731600D01*
X130566135Y-114800447D01*
X130518892Y-114851923D01*
X130493178Y-114863667D01*
X130475117Y-114869535D01*
X130301617Y-114957938D01*
X130144081Y-115072395D01*
X130006395Y-115210081D01*
X129891938Y-115367617D01*
X129803536Y-115541114D01*
X129800564Y-115550261D01*
X129797929Y-115558369D01*
X129758493Y-115616043D01*
X129694134Y-115643241D01*
X129625288Y-115631326D01*
X129573812Y-115584082D01*
X129562070Y-115558372D01*
X129556465Y-115541119D01*
X129556463Y-115541116D01*
X129556463Y-115541114D01*
X129468197Y-115367883D01*
X129468062Y-115367618D01*
X129353607Y-115210084D01*
X129215916Y-115072393D01*
X129058382Y-114957938D01*
X128987563Y-114921854D01*
X128884882Y-114869535D01*
X128874756Y-114866245D01*
X128867632Y-114863930D01*
X128809957Y-114824494D01*
X128782758Y-114760136D01*
X128794672Y-114691290D01*
X128841916Y-114639813D01*
X128867631Y-114628069D01*
X128884881Y-114622465D01*
X129058382Y-114534062D01*
X129215916Y-114419607D01*
X129353607Y-114281916D01*
X129468062Y-114124382D01*
X129556465Y-113950881D01*
X129562332Y-113932823D01*
X129601766Y-113875151D01*
X129666123Y-113847951D01*
X129734970Y-113859863D01*
X129786447Y-113907106D01*
X129798193Y-113932822D01*
X129804000Y-113950695D01*
X129892366Y-114124122D01*
X129915912Y-114156531D01*
X129915913Y-114156531D01*
X130481244Y-113591201D01*
X130500289Y-113662277D01*
G37*
%TD.AperFunction*%
%TA.AperFunction,Conductor*%
G36*
X131984085Y-114156532D02*
G01*
X131984086Y-114156531D01*
X132007630Y-114124125D01*
X132007638Y-114124112D01*
X132096000Y-113950693D01*
X132101805Y-113932827D01*
X132141241Y-113875151D01*
X132205599Y-113847951D01*
X132274445Y-113859863D01*
X132325922Y-113907106D01*
X132337666Y-113932819D01*
X132337667Y-113932822D01*
X132337668Y-113932823D01*
X132343536Y-113950885D01*
X132431800Y-114124112D01*
X132431938Y-114124382D01*
X132546393Y-114281916D01*
X132684084Y-114419607D01*
X132841618Y-114534062D01*
X132919406Y-114573697D01*
X133015114Y-114622463D01*
X133015116Y-114622463D01*
X133015119Y-114622465D01*
X133032369Y-114628070D01*
X133090043Y-114667507D01*
X133117241Y-114731866D01*
X133105326Y-114800712D01*
X133058082Y-114852188D01*
X133032372Y-114863929D01*
X133024261Y-114866564D01*
X133015114Y-114869536D01*
X132841617Y-114957938D01*
X132684081Y-115072395D01*
X132546395Y-115210081D01*
X132431938Y-115367617D01*
X132343536Y-115541114D01*
X132340564Y-115550261D01*
X132337929Y-115558369D01*
X132298493Y-115616043D01*
X132234134Y-115643241D01*
X132165288Y-115631326D01*
X132113812Y-115584082D01*
X132102070Y-115558372D01*
X132096465Y-115541119D01*
X132096463Y-115541116D01*
X132096463Y-115541114D01*
X132008197Y-115367883D01*
X132008062Y-115367618D01*
X131893607Y-115210084D01*
X131755916Y-115072393D01*
X131598382Y-114957938D01*
X131424885Y-114869536D01*
X131417302Y-114867072D01*
X131406821Y-114863667D01*
X131349148Y-114824230D01*
X131321950Y-114759871D01*
X131333865Y-114691024D01*
X131381110Y-114639549D01*
X131406827Y-114627805D01*
X131424693Y-114622000D01*
X131598112Y-114533638D01*
X131598125Y-114533630D01*
X131630531Y-114510086D01*
X131630532Y-114510085D01*
X131065202Y-113944755D01*
X131136277Y-113925711D01*
X131246323Y-113862176D01*
X131336176Y-113772323D01*
X131399711Y-113662277D01*
X131418755Y-113591202D01*
X131984085Y-114156532D01*
G37*
%TD.AperFunction*%
%TA.AperFunction,Conductor*%
G36*
X140660289Y-113662277D02*
G01*
X140723824Y-113772323D01*
X140813677Y-113862176D01*
X140923723Y-113925711D01*
X140994797Y-113944755D01*
X140429467Y-114510085D01*
X140461883Y-114533636D01*
X140635305Y-114621999D01*
X140653173Y-114627805D01*
X140710849Y-114667242D01*
X140738049Y-114731600D01*
X140726135Y-114800447D01*
X140678892Y-114851923D01*
X140653178Y-114863667D01*
X140635117Y-114869535D01*
X140461617Y-114957938D01*
X140304081Y-115072395D01*
X140166395Y-115210081D01*
X140051938Y-115367617D01*
X139963536Y-115541114D01*
X139960564Y-115550261D01*
X139957929Y-115558369D01*
X139918493Y-115616043D01*
X139854134Y-115643241D01*
X139785288Y-115631326D01*
X139733812Y-115584082D01*
X139722070Y-115558372D01*
X139716465Y-115541119D01*
X139716463Y-115541116D01*
X139716463Y-115541114D01*
X139628197Y-115367883D01*
X139628062Y-115367618D01*
X139513607Y-115210084D01*
X139375916Y-115072393D01*
X139218382Y-114957938D01*
X139147563Y-114921854D01*
X139044882Y-114869535D01*
X139034756Y-114866245D01*
X139027632Y-114863930D01*
X138969957Y-114824494D01*
X138942758Y-114760136D01*
X138954672Y-114691290D01*
X139001916Y-114639813D01*
X139027631Y-114628069D01*
X139044881Y-114622465D01*
X139218382Y-114534062D01*
X139375916Y-114419607D01*
X139513607Y-114281916D01*
X139628062Y-114124382D01*
X139716465Y-113950881D01*
X139722332Y-113932823D01*
X139761766Y-113875151D01*
X139826123Y-113847951D01*
X139894970Y-113859863D01*
X139946447Y-113907106D01*
X139958193Y-113932822D01*
X139964000Y-113950695D01*
X140052366Y-114124122D01*
X140075912Y-114156531D01*
X140075913Y-114156531D01*
X140641244Y-113591201D01*
X140660289Y-113662277D01*
G37*
%TD.AperFunction*%
%TA.AperFunction,Conductor*%
G36*
X142144085Y-114156532D02*
G01*
X142144086Y-114156531D01*
X142167630Y-114124125D01*
X142167638Y-114124112D01*
X142256000Y-113950693D01*
X142261805Y-113932827D01*
X142301241Y-113875151D01*
X142365599Y-113847951D01*
X142434445Y-113859863D01*
X142485922Y-113907106D01*
X142497666Y-113932819D01*
X142497667Y-113932822D01*
X142497668Y-113932823D01*
X142503536Y-113950885D01*
X142591800Y-114124112D01*
X142591938Y-114124382D01*
X142706393Y-114281916D01*
X142844084Y-114419607D01*
X143001618Y-114534062D01*
X143079406Y-114573697D01*
X143175114Y-114622463D01*
X143175116Y-114622463D01*
X143175119Y-114622465D01*
X143192369Y-114628070D01*
X143250043Y-114667507D01*
X143277241Y-114731866D01*
X143265326Y-114800712D01*
X143218082Y-114852188D01*
X143192372Y-114863929D01*
X143184261Y-114866564D01*
X143175114Y-114869536D01*
X143001617Y-114957938D01*
X142844081Y-115072395D01*
X142706395Y-115210081D01*
X142591938Y-115367617D01*
X142503536Y-115541114D01*
X142500564Y-115550261D01*
X142497929Y-115558369D01*
X142458493Y-115616043D01*
X142394134Y-115643241D01*
X142325288Y-115631326D01*
X142273812Y-115584082D01*
X142262070Y-115558372D01*
X142256465Y-115541119D01*
X142256463Y-115541116D01*
X142256463Y-115541114D01*
X142168197Y-115367883D01*
X142168062Y-115367618D01*
X142053607Y-115210084D01*
X141915916Y-115072393D01*
X141758382Y-114957938D01*
X141584885Y-114869536D01*
X141577302Y-114867072D01*
X141566821Y-114863667D01*
X141509148Y-114824230D01*
X141481950Y-114759871D01*
X141493865Y-114691024D01*
X141541110Y-114639549D01*
X141566827Y-114627805D01*
X141584693Y-114622000D01*
X141758112Y-114533638D01*
X141758125Y-114533630D01*
X141790531Y-114510086D01*
X141790532Y-114510085D01*
X141225202Y-113944755D01*
X141296277Y-113925711D01*
X141406323Y-113862176D01*
X141496176Y-113772323D01*
X141559711Y-113662277D01*
X141578755Y-113591202D01*
X142144085Y-114156532D01*
G37*
%TD.AperFunction*%
%TA.AperFunction,Conductor*%
G36*
X148280289Y-113662277D02*
G01*
X148343824Y-113772323D01*
X148433677Y-113862176D01*
X148543723Y-113925711D01*
X148614797Y-113944755D01*
X148049467Y-114510085D01*
X148081883Y-114533636D01*
X148255305Y-114621999D01*
X148273173Y-114627805D01*
X148330849Y-114667242D01*
X148358049Y-114731600D01*
X148346135Y-114800447D01*
X148298892Y-114851923D01*
X148273178Y-114863667D01*
X148255117Y-114869535D01*
X148081617Y-114957938D01*
X147924081Y-115072395D01*
X147786395Y-115210081D01*
X147671938Y-115367617D01*
X147583536Y-115541114D01*
X147580564Y-115550261D01*
X147577929Y-115558369D01*
X147538493Y-115616043D01*
X147474134Y-115643241D01*
X147405288Y-115631326D01*
X147353812Y-115584082D01*
X147342070Y-115558372D01*
X147336465Y-115541119D01*
X147336463Y-115541116D01*
X147336463Y-115541114D01*
X147248197Y-115367883D01*
X147248062Y-115367618D01*
X147133607Y-115210084D01*
X146995916Y-115072393D01*
X146838382Y-114957938D01*
X146767563Y-114921854D01*
X146664882Y-114869535D01*
X146654756Y-114866245D01*
X146647632Y-114863930D01*
X146589957Y-114824494D01*
X146562758Y-114760136D01*
X146574672Y-114691290D01*
X146621916Y-114639813D01*
X146647631Y-114628069D01*
X146664881Y-114622465D01*
X146838382Y-114534062D01*
X146995916Y-114419607D01*
X147133607Y-114281916D01*
X147248062Y-114124382D01*
X147336465Y-113950881D01*
X147342332Y-113932823D01*
X147381766Y-113875151D01*
X147446123Y-113847951D01*
X147514970Y-113859863D01*
X147566447Y-113907106D01*
X147578193Y-113932822D01*
X147584000Y-113950695D01*
X147672366Y-114124122D01*
X147695912Y-114156531D01*
X147695913Y-114156531D01*
X148261244Y-113591201D01*
X148280289Y-113662277D01*
G37*
%TD.AperFunction*%
%TA.AperFunction,Conductor*%
G36*
X149764085Y-114156532D02*
G01*
X149764086Y-114156531D01*
X149787630Y-114124125D01*
X149787638Y-114124112D01*
X149876000Y-113950693D01*
X149881805Y-113932827D01*
X149921241Y-113875151D01*
X149985599Y-113847951D01*
X150054445Y-113859863D01*
X150105922Y-113907106D01*
X150117666Y-113932819D01*
X150117667Y-113932822D01*
X150117668Y-113932823D01*
X150123536Y-113950885D01*
X150211800Y-114124112D01*
X150211938Y-114124382D01*
X150326393Y-114281916D01*
X150464084Y-114419607D01*
X150621618Y-114534062D01*
X150699406Y-114573697D01*
X150795114Y-114622463D01*
X150795116Y-114622463D01*
X150795119Y-114622465D01*
X150812369Y-114628070D01*
X150870043Y-114667507D01*
X150897241Y-114731866D01*
X150885326Y-114800712D01*
X150838082Y-114852188D01*
X150812372Y-114863929D01*
X150804261Y-114866564D01*
X150795114Y-114869536D01*
X150621617Y-114957938D01*
X150464081Y-115072395D01*
X150326395Y-115210081D01*
X150211938Y-115367617D01*
X150123536Y-115541114D01*
X150120564Y-115550261D01*
X150117929Y-115558369D01*
X150078493Y-115616043D01*
X150014134Y-115643241D01*
X149945288Y-115631326D01*
X149893812Y-115584082D01*
X149882070Y-115558372D01*
X149876465Y-115541119D01*
X149876463Y-115541116D01*
X149876463Y-115541114D01*
X149788197Y-115367883D01*
X149788062Y-115367618D01*
X149673607Y-115210084D01*
X149535916Y-115072393D01*
X149378382Y-114957938D01*
X149204885Y-114869536D01*
X149197302Y-114867072D01*
X149186821Y-114863667D01*
X149129148Y-114824230D01*
X149101950Y-114759871D01*
X149113865Y-114691024D01*
X149161110Y-114639549D01*
X149186827Y-114627805D01*
X149204693Y-114622000D01*
X149378112Y-114533638D01*
X149378125Y-114533630D01*
X149410531Y-114510086D01*
X149410532Y-114510085D01*
X148845202Y-113944755D01*
X148916277Y-113925711D01*
X149026323Y-113862176D01*
X149116176Y-113772323D01*
X149179711Y-113662277D01*
X149198755Y-113591202D01*
X149764085Y-114156532D01*
G37*
%TD.AperFunction*%
%TA.AperFunction,Conductor*%
G36*
X160980289Y-113662277D02*
G01*
X161043824Y-113772323D01*
X161133677Y-113862176D01*
X161243723Y-113925711D01*
X161314797Y-113944755D01*
X160749467Y-114510085D01*
X160781883Y-114533636D01*
X160955305Y-114621999D01*
X160973173Y-114627805D01*
X161030849Y-114667242D01*
X161058049Y-114731600D01*
X161046135Y-114800447D01*
X160998892Y-114851923D01*
X160973178Y-114863667D01*
X160955117Y-114869535D01*
X160781617Y-114957938D01*
X160624081Y-115072395D01*
X160486395Y-115210081D01*
X160371938Y-115367617D01*
X160283536Y-115541114D01*
X160280564Y-115550261D01*
X160277929Y-115558369D01*
X160238493Y-115616043D01*
X160174134Y-115643241D01*
X160105288Y-115631326D01*
X160053812Y-115584082D01*
X160042070Y-115558372D01*
X160036465Y-115541119D01*
X160036463Y-115541116D01*
X160036463Y-115541114D01*
X159948197Y-115367883D01*
X159948062Y-115367618D01*
X159833607Y-115210084D01*
X159695916Y-115072393D01*
X159538382Y-114957938D01*
X159467563Y-114921854D01*
X159364882Y-114869535D01*
X159354756Y-114866245D01*
X159347632Y-114863930D01*
X159289957Y-114824494D01*
X159262758Y-114760136D01*
X159274672Y-114691290D01*
X159321916Y-114639813D01*
X159347631Y-114628069D01*
X159364881Y-114622465D01*
X159538382Y-114534062D01*
X159695916Y-114419607D01*
X159833607Y-114281916D01*
X159948062Y-114124382D01*
X160036465Y-113950881D01*
X160042332Y-113932823D01*
X160081766Y-113875151D01*
X160146123Y-113847951D01*
X160214970Y-113859863D01*
X160266447Y-113907106D01*
X160278193Y-113932822D01*
X160284000Y-113950695D01*
X160372366Y-114124122D01*
X160395912Y-114156531D01*
X160395913Y-114156531D01*
X160961244Y-113591201D01*
X160980289Y-113662277D01*
G37*
%TD.AperFunction*%
%TA.AperFunction,Conductor*%
G36*
X162464085Y-114156532D02*
G01*
X162464086Y-114156531D01*
X162487630Y-114124125D01*
X162487638Y-114124112D01*
X162576000Y-113950693D01*
X162581805Y-113932827D01*
X162621241Y-113875151D01*
X162685599Y-113847951D01*
X162754445Y-113859863D01*
X162805922Y-113907106D01*
X162817666Y-113932819D01*
X162817667Y-113932822D01*
X162817668Y-113932823D01*
X162823536Y-113950885D01*
X162911800Y-114124112D01*
X162911938Y-114124382D01*
X163026393Y-114281916D01*
X163164084Y-114419607D01*
X163321618Y-114534062D01*
X163399406Y-114573697D01*
X163495114Y-114622463D01*
X163495116Y-114622463D01*
X163495119Y-114622465D01*
X163512369Y-114628070D01*
X163570043Y-114667507D01*
X163597241Y-114731866D01*
X163585326Y-114800712D01*
X163538082Y-114852188D01*
X163512372Y-114863929D01*
X163504261Y-114866564D01*
X163495114Y-114869536D01*
X163321617Y-114957938D01*
X163164081Y-115072395D01*
X163026395Y-115210081D01*
X162911938Y-115367617D01*
X162823536Y-115541114D01*
X162820564Y-115550261D01*
X162817929Y-115558369D01*
X162778493Y-115616043D01*
X162714134Y-115643241D01*
X162645288Y-115631326D01*
X162593812Y-115584082D01*
X162582070Y-115558372D01*
X162576465Y-115541119D01*
X162576463Y-115541116D01*
X162576463Y-115541114D01*
X162488197Y-115367883D01*
X162488062Y-115367618D01*
X162373607Y-115210084D01*
X162235916Y-115072393D01*
X162078382Y-114957938D01*
X161904885Y-114869536D01*
X161897302Y-114867072D01*
X161886821Y-114863667D01*
X161829148Y-114824230D01*
X161801950Y-114759871D01*
X161813865Y-114691024D01*
X161861110Y-114639549D01*
X161886827Y-114627805D01*
X161904693Y-114622000D01*
X162078112Y-114533638D01*
X162078125Y-114533630D01*
X162110531Y-114510086D01*
X162110532Y-114510085D01*
X161545202Y-113944755D01*
X161616277Y-113925711D01*
X161726323Y-113862176D01*
X161816176Y-113772323D01*
X161879711Y-113662277D01*
X161898755Y-113591202D01*
X162464085Y-114156532D01*
G37*
%TD.AperFunction*%
%TA.AperFunction,Conductor*%
G36*
X166060289Y-113662277D02*
G01*
X166123824Y-113772323D01*
X166213677Y-113862176D01*
X166323723Y-113925711D01*
X166394797Y-113944755D01*
X165829467Y-114510085D01*
X165861883Y-114533636D01*
X166035305Y-114621999D01*
X166053173Y-114627805D01*
X166110849Y-114667242D01*
X166138049Y-114731600D01*
X166126135Y-114800447D01*
X166078892Y-114851923D01*
X166053178Y-114863667D01*
X166035117Y-114869535D01*
X165861617Y-114957938D01*
X165704081Y-115072395D01*
X165566395Y-115210081D01*
X165451938Y-115367617D01*
X165363536Y-115541114D01*
X165360564Y-115550261D01*
X165357929Y-115558369D01*
X165318493Y-115616043D01*
X165254134Y-115643241D01*
X165185288Y-115631326D01*
X165133812Y-115584082D01*
X165122070Y-115558372D01*
X165116465Y-115541119D01*
X165116463Y-115541116D01*
X165116463Y-115541114D01*
X165028197Y-115367883D01*
X165028062Y-115367618D01*
X164913607Y-115210084D01*
X164775916Y-115072393D01*
X164618382Y-114957938D01*
X164547563Y-114921854D01*
X164444882Y-114869535D01*
X164434756Y-114866245D01*
X164427632Y-114863930D01*
X164369957Y-114824494D01*
X164342758Y-114760136D01*
X164354672Y-114691290D01*
X164401916Y-114639813D01*
X164427631Y-114628069D01*
X164444881Y-114622465D01*
X164618382Y-114534062D01*
X164775916Y-114419607D01*
X164913607Y-114281916D01*
X165028062Y-114124382D01*
X165116465Y-113950881D01*
X165122332Y-113932823D01*
X165161766Y-113875151D01*
X165226123Y-113847951D01*
X165294970Y-113859863D01*
X165346447Y-113907106D01*
X165358193Y-113932822D01*
X165364000Y-113950695D01*
X165452366Y-114124122D01*
X165475912Y-114156531D01*
X165475913Y-114156531D01*
X166041244Y-113591201D01*
X166060289Y-113662277D01*
G37*
%TD.AperFunction*%
%TA.AperFunction,Conductor*%
G36*
X167544085Y-114156532D02*
G01*
X167544086Y-114156531D01*
X167567630Y-114124125D01*
X167567638Y-114124112D01*
X167656000Y-113950693D01*
X167661805Y-113932827D01*
X167701241Y-113875151D01*
X167765599Y-113847951D01*
X167834445Y-113859863D01*
X167885922Y-113907106D01*
X167897666Y-113932819D01*
X167897667Y-113932822D01*
X167897668Y-113932823D01*
X167903536Y-113950885D01*
X167991800Y-114124112D01*
X167991938Y-114124382D01*
X168106393Y-114281916D01*
X168244084Y-114419607D01*
X168401618Y-114534062D01*
X168479406Y-114573697D01*
X168575114Y-114622463D01*
X168575116Y-114622463D01*
X168575119Y-114622465D01*
X168592369Y-114628070D01*
X168650043Y-114667507D01*
X168677241Y-114731866D01*
X168665326Y-114800712D01*
X168618082Y-114852188D01*
X168592372Y-114863929D01*
X168584261Y-114866564D01*
X168575114Y-114869536D01*
X168401617Y-114957938D01*
X168244081Y-115072395D01*
X168106395Y-115210081D01*
X167991938Y-115367617D01*
X167903536Y-115541114D01*
X167900564Y-115550261D01*
X167897929Y-115558369D01*
X167858493Y-115616043D01*
X167794134Y-115643241D01*
X167725288Y-115631326D01*
X167673812Y-115584082D01*
X167662070Y-115558372D01*
X167656465Y-115541119D01*
X167656463Y-115541116D01*
X167656463Y-115541114D01*
X167568197Y-115367883D01*
X167568062Y-115367618D01*
X167453607Y-115210084D01*
X167315916Y-115072393D01*
X167158382Y-114957938D01*
X166984885Y-114869536D01*
X166977302Y-114867072D01*
X166966821Y-114863667D01*
X166909148Y-114824230D01*
X166881950Y-114759871D01*
X166893865Y-114691024D01*
X166941110Y-114639549D01*
X166966827Y-114627805D01*
X166984693Y-114622000D01*
X167158112Y-114533638D01*
X167158125Y-114533630D01*
X167190531Y-114510086D01*
X167190532Y-114510085D01*
X166625202Y-113944755D01*
X166696277Y-113925711D01*
X166806323Y-113862176D01*
X166896176Y-113772323D01*
X166959711Y-113662277D01*
X166978755Y-113591202D01*
X167544085Y-114156532D01*
G37*
%TD.AperFunction*%
%TA.AperFunction,Conductor*%
G36*
X193503032Y-80500648D02*
G01*
X193836929Y-80517052D01*
X193849037Y-80518245D01*
X193952146Y-80533539D01*
X194176699Y-80566849D01*
X194188617Y-80569219D01*
X194509951Y-80649709D01*
X194521588Y-80653240D01*
X194592806Y-80678722D01*
X194833467Y-80764832D01*
X194844688Y-80769479D01*
X195144163Y-80911120D01*
X195154871Y-80916844D01*
X195438988Y-81087137D01*
X195449106Y-81093897D01*
X195715170Y-81291224D01*
X195724576Y-81298944D01*
X195970013Y-81521395D01*
X195978604Y-81529986D01*
X196084797Y-81647152D01*
X196201055Y-81775423D01*
X196208775Y-81784829D01*
X196406102Y-82050893D01*
X196412862Y-82061011D01*
X196541776Y-82276092D01*
X196583148Y-82345116D01*
X196588885Y-82355848D01*
X196730514Y-82655297D01*
X196735170Y-82666540D01*
X196846759Y-82978411D01*
X196850292Y-82990055D01*
X196930777Y-83311369D01*
X196933151Y-83323305D01*
X196981754Y-83650962D01*
X196982947Y-83663071D01*
X196999351Y-83996966D01*
X196999500Y-84003051D01*
X196999500Y-115996948D01*
X196999351Y-116003033D01*
X196982947Y-116336928D01*
X196981754Y-116349037D01*
X196933151Y-116676694D01*
X196930777Y-116688630D01*
X196850292Y-117009944D01*
X196846759Y-117021588D01*
X196735170Y-117333459D01*
X196730514Y-117344702D01*
X196588885Y-117644151D01*
X196583148Y-117654883D01*
X196412862Y-117938988D01*
X196406102Y-117949106D01*
X196208775Y-118215170D01*
X196201055Y-118224576D01*
X195978611Y-118470006D01*
X195970006Y-118478611D01*
X195724576Y-118701055D01*
X195715170Y-118708775D01*
X195449106Y-118906102D01*
X195438988Y-118912862D01*
X195154883Y-119083148D01*
X195144151Y-119088885D01*
X194844702Y-119230514D01*
X194833459Y-119235170D01*
X194521588Y-119346759D01*
X194509944Y-119350292D01*
X194188630Y-119430777D01*
X194176694Y-119433151D01*
X193849037Y-119481754D01*
X193836928Y-119482947D01*
X193521989Y-119498419D01*
X193503031Y-119499351D01*
X193496949Y-119499500D01*
X106503051Y-119499500D01*
X106496968Y-119499351D01*
X106476900Y-119498365D01*
X106163071Y-119482947D01*
X106150962Y-119481754D01*
X105823305Y-119433151D01*
X105811369Y-119430777D01*
X105490055Y-119350292D01*
X105478411Y-119346759D01*
X105166540Y-119235170D01*
X105155301Y-119230515D01*
X104855844Y-119088883D01*
X104845121Y-119083150D01*
X104561011Y-118912862D01*
X104550893Y-118906102D01*
X104284829Y-118708775D01*
X104275423Y-118701055D01*
X104236475Y-118665755D01*
X104029986Y-118478604D01*
X104021395Y-118470013D01*
X103798944Y-118224576D01*
X103791224Y-118215170D01*
X103691034Y-118080080D01*
X103593895Y-117949103D01*
X103587137Y-117938988D01*
X103580448Y-117927828D01*
X103416844Y-117654871D01*
X103411120Y-117644163D01*
X103269479Y-117344688D01*
X103264829Y-117333459D01*
X103236075Y-117253098D01*
X103153240Y-117021588D01*
X103149707Y-117009944D01*
X103069219Y-116688617D01*
X103066848Y-116676694D01*
X103018245Y-116349037D01*
X103017052Y-116336927D01*
X103000649Y-116003032D01*
X103000500Y-115996948D01*
X103000500Y-115823065D01*
X103349500Y-115823065D01*
X103349500Y-116176934D01*
X103389116Y-116528545D01*
X103389118Y-116528557D01*
X103389119Y-116528560D01*
X103402586Y-116587563D01*
X103467859Y-116873543D01*
X103467860Y-116873545D01*
X103584731Y-117207545D01*
X103738262Y-117526355D01*
X103738264Y-117526358D01*
X103926527Y-117825976D01*
X104007751Y-117927828D01*
X104129167Y-118080080D01*
X104147153Y-118102633D01*
X104397367Y-118352847D01*
X104674024Y-118573473D01*
X104973642Y-118761736D01*
X105292456Y-118915269D01*
X105626456Y-119032140D01*
X105971440Y-119110881D01*
X105971449Y-119110882D01*
X105971454Y-119110883D01*
X106205861Y-119137293D01*
X106323066Y-119150499D01*
X106323069Y-119150500D01*
X106323072Y-119150500D01*
X106676931Y-119150500D01*
X106676932Y-119150499D01*
X106856635Y-119130252D01*
X107028545Y-119110883D01*
X107028548Y-119110882D01*
X107028560Y-119110881D01*
X107373544Y-119032140D01*
X107707544Y-118915269D01*
X108026358Y-118761736D01*
X108325976Y-118573473D01*
X108602633Y-118352847D01*
X108852847Y-118102633D01*
X109073473Y-117825976D01*
X109261736Y-117526358D01*
X109415269Y-117207544D01*
X109532140Y-116873544D01*
X109610881Y-116528560D01*
X109615127Y-116490881D01*
X109631787Y-116343011D01*
X109650500Y-116176928D01*
X109650500Y-115823072D01*
X109628896Y-115631326D01*
X109610883Y-115471454D01*
X109610882Y-115471449D01*
X109610881Y-115471440D01*
X109532140Y-115126456D01*
X109473173Y-114957938D01*
X109456546Y-114910419D01*
X109443918Y-114874331D01*
X115319800Y-114874331D01*
X115319800Y-115125668D01*
X115359115Y-115373895D01*
X115436781Y-115612924D01*
X115543855Y-115823065D01*
X115550880Y-115836853D01*
X115698606Y-116040180D01*
X115876320Y-116217894D01*
X116079647Y-116365620D01*
X116148440Y-116400672D01*
X116303575Y-116479718D01*
X116303577Y-116479718D01*
X116303580Y-116479720D01*
X116361687Y-116498600D01*
X116542604Y-116557384D01*
X116790832Y-116596700D01*
X116790837Y-116596700D01*
X117042168Y-116596700D01*
X117290395Y-116557384D01*
X117529420Y-116479720D01*
X117753353Y-116365620D01*
X117956680Y-116217894D01*
X118134394Y-116040180D01*
X118282120Y-115836853D01*
X118396220Y-115612920D01*
X118473884Y-115373895D01*
X118474878Y-115367617D01*
X118513200Y-115125668D01*
X118513200Y-114874331D01*
X118473884Y-114626104D01*
X118424346Y-114473642D01*
X118396220Y-114387080D01*
X118396218Y-114387077D01*
X118396218Y-114387075D01*
X118307397Y-114212756D01*
X118282120Y-114163147D01*
X118134394Y-113959820D01*
X117956680Y-113782106D01*
X117753353Y-113634380D01*
X117529424Y-113520281D01*
X117477828Y-113503516D01*
X117415100Y-113483135D01*
X117290395Y-113442615D01*
X117042168Y-113403300D01*
X117042163Y-113403300D01*
X116790837Y-113403300D01*
X116790832Y-113403300D01*
X116542604Y-113442615D01*
X116303575Y-113520281D01*
X116079646Y-113634380D01*
X115963641Y-113718663D01*
X115876320Y-113782106D01*
X115876318Y-113782108D01*
X115876317Y-113782108D01*
X115698608Y-113959817D01*
X115698608Y-113959818D01*
X115698606Y-113959820D01*
X115635163Y-114047141D01*
X115550880Y-114163146D01*
X115436781Y-114387075D01*
X115359115Y-114626104D01*
X115319800Y-114874331D01*
X109443918Y-114874331D01*
X109426570Y-114824754D01*
X109415269Y-114792456D01*
X109261736Y-114473642D01*
X109073473Y-114174024D01*
X108852847Y-113897367D01*
X108602633Y-113647153D01*
X108325976Y-113426527D01*
X108249761Y-113378638D01*
X124632900Y-113378638D01*
X124632900Y-113573362D01*
X124663362Y-113765688D01*
X124723535Y-113950881D01*
X124811938Y-114124382D01*
X124926393Y-114281916D01*
X125064084Y-114419607D01*
X125221618Y-114534062D01*
X125241937Y-114544415D01*
X125292733Y-114592386D01*
X125309530Y-114660207D01*
X125286995Y-114726342D01*
X125232281Y-114769796D01*
X125185645Y-114778900D01*
X125085530Y-114778900D01*
X125085523Y-114778901D01*
X125025916Y-114785308D01*
X124891071Y-114835602D01*
X124891064Y-114835606D01*
X124775855Y-114921852D01*
X124775852Y-114921855D01*
X124689606Y-115037064D01*
X124689602Y-115037071D01*
X124639308Y-115171917D01*
X124635205Y-115210084D01*
X124632901Y-115231523D01*
X124632900Y-115231535D01*
X124632900Y-116800470D01*
X124632901Y-116800476D01*
X124639308Y-116860083D01*
X124689602Y-116994928D01*
X124689606Y-116994935D01*
X124775852Y-117110144D01*
X124775855Y-117110147D01*
X124891064Y-117196393D01*
X124891071Y-117196397D01*
X125025917Y-117246691D01*
X125025916Y-117246691D01*
X125032844Y-117247435D01*
X125085527Y-117253100D01*
X126654472Y-117253099D01*
X126714083Y-117246691D01*
X126848931Y-117196396D01*
X126964146Y-117110146D01*
X127050396Y-116994931D01*
X127100691Y-116860083D01*
X127107100Y-116800473D01*
X127107099Y-116700354D01*
X127126783Y-116633319D01*
X127179586Y-116587563D01*
X127248745Y-116577619D01*
X127312301Y-116606643D01*
X127341583Y-116644060D01*
X127351938Y-116664382D01*
X127466393Y-116821916D01*
X127604084Y-116959607D01*
X127761618Y-117074062D01*
X127935119Y-117162465D01*
X128120312Y-117222638D01*
X128312638Y-117253100D01*
X128312639Y-117253100D01*
X128507361Y-117253100D01*
X128507362Y-117253100D01*
X128699688Y-117222638D01*
X128884881Y-117162465D01*
X129058382Y-117074062D01*
X129215916Y-116959607D01*
X129353607Y-116821916D01*
X129468062Y-116664382D01*
X129556465Y-116490881D01*
X129562069Y-116473632D01*
X129601506Y-116415957D01*
X129665864Y-116388758D01*
X129734710Y-116400672D01*
X129786187Y-116447916D01*
X129797931Y-116473633D01*
X129803535Y-116490882D01*
X129876111Y-116633319D01*
X129891938Y-116664382D01*
X130006393Y-116821916D01*
X130144084Y-116959607D01*
X130301618Y-117074062D01*
X130475119Y-117162465D01*
X130660312Y-117222638D01*
X130852638Y-117253100D01*
X130852639Y-117253100D01*
X131047361Y-117253100D01*
X131047362Y-117253100D01*
X131239688Y-117222638D01*
X131424881Y-117162465D01*
X131598382Y-117074062D01*
X131755916Y-116959607D01*
X131893607Y-116821916D01*
X132008062Y-116664382D01*
X132096465Y-116490881D01*
X132102069Y-116473632D01*
X132141506Y-116415957D01*
X132205864Y-116388758D01*
X132274710Y-116400672D01*
X132326187Y-116447916D01*
X132337931Y-116473633D01*
X132343535Y-116490882D01*
X132416111Y-116633319D01*
X132431938Y-116664382D01*
X132546393Y-116821916D01*
X132684084Y-116959607D01*
X132841618Y-117074062D01*
X133015119Y-117162465D01*
X133200312Y-117222638D01*
X133392638Y-117253100D01*
X133392639Y-117253100D01*
X133587361Y-117253100D01*
X133587362Y-117253100D01*
X133779688Y-117222638D01*
X133964881Y-117162465D01*
X134138382Y-117074062D01*
X134295916Y-116959607D01*
X134433607Y-116821916D01*
X134548062Y-116664382D01*
X134636465Y-116490881D01*
X134642332Y-116472823D01*
X134681766Y-116415151D01*
X134746123Y-116387951D01*
X134814970Y-116399863D01*
X134866447Y-116447106D01*
X134878193Y-116472822D01*
X134884000Y-116490695D01*
X134972366Y-116664122D01*
X134995912Y-116696531D01*
X134995913Y-116696531D01*
X135561244Y-116131201D01*
X135580289Y-116202277D01*
X135643824Y-116312323D01*
X135733677Y-116402176D01*
X135843723Y-116465711D01*
X135914797Y-116484755D01*
X135349467Y-117050085D01*
X135381883Y-117073636D01*
X135555305Y-117162000D01*
X135740428Y-117222151D01*
X135932672Y-117252600D01*
X136127328Y-117252600D01*
X136319571Y-117222151D01*
X136504694Y-117162000D01*
X136678112Y-117073638D01*
X136678125Y-117073630D01*
X136710531Y-117050086D01*
X136710532Y-117050085D01*
X136145202Y-116484755D01*
X136216277Y-116465711D01*
X136326323Y-116402176D01*
X136416176Y-116312323D01*
X136479711Y-116202277D01*
X136498755Y-116131201D01*
X137064085Y-116696532D01*
X137064086Y-116696531D01*
X137087630Y-116664125D01*
X137087638Y-116664112D01*
X137176000Y-116490693D01*
X137181805Y-116472827D01*
X137221241Y-116415151D01*
X137285599Y-116387951D01*
X137354445Y-116399863D01*
X137405922Y-116447106D01*
X137417666Y-116472819D01*
X137417667Y-116472822D01*
X137417668Y-116472823D01*
X137423536Y-116490885D01*
X137501583Y-116644060D01*
X137511938Y-116664382D01*
X137626393Y-116821916D01*
X137764084Y-116959607D01*
X137921618Y-117074062D01*
X138095119Y-117162465D01*
X138280312Y-117222638D01*
X138472638Y-117253100D01*
X138472639Y-117253100D01*
X138667361Y-117253100D01*
X138667362Y-117253100D01*
X138859688Y-117222638D01*
X139044881Y-117162465D01*
X139218382Y-117074062D01*
X139375916Y-116959607D01*
X139513607Y-116821916D01*
X139628062Y-116664382D01*
X139716465Y-116490881D01*
X139722069Y-116473632D01*
X139761506Y-116415957D01*
X139825864Y-116388758D01*
X139894710Y-116400672D01*
X139946187Y-116447916D01*
X139957931Y-116473633D01*
X139963535Y-116490882D01*
X140036111Y-116633319D01*
X140051938Y-116664382D01*
X140166393Y-116821916D01*
X140304084Y-116959607D01*
X140461618Y-117074062D01*
X140635119Y-117162465D01*
X140820312Y-117222638D01*
X141012638Y-117253100D01*
X141012639Y-117253100D01*
X141207361Y-117253100D01*
X141207362Y-117253100D01*
X141399688Y-117222638D01*
X141584881Y-117162465D01*
X141758382Y-117074062D01*
X141915916Y-116959607D01*
X142053607Y-116821916D01*
X142168062Y-116664382D01*
X142256465Y-116490881D01*
X142262069Y-116473632D01*
X142301506Y-116415957D01*
X142365864Y-116388758D01*
X142434710Y-116400672D01*
X142486187Y-116447916D01*
X142497931Y-116473633D01*
X142503535Y-116490882D01*
X142576111Y-116633319D01*
X142591938Y-116664382D01*
X142706393Y-116821916D01*
X142844084Y-116959607D01*
X143001618Y-117074062D01*
X143175119Y-117162465D01*
X143360312Y-117222638D01*
X143552638Y-117253100D01*
X143552639Y-117253100D01*
X143747361Y-117253100D01*
X143747362Y-117253100D01*
X143939688Y-117222638D01*
X144124881Y-117162465D01*
X144298382Y-117074062D01*
X144455916Y-116959607D01*
X144593607Y-116821916D01*
X144708062Y-116664382D01*
X144796465Y-116490881D01*
X144802069Y-116473632D01*
X144841506Y-116415957D01*
X144905864Y-116388758D01*
X144974710Y-116400672D01*
X145026187Y-116447916D01*
X145037931Y-116473633D01*
X145043535Y-116490882D01*
X145116111Y-116633319D01*
X145131938Y-116664382D01*
X145246393Y-116821916D01*
X145384084Y-116959607D01*
X145541618Y-117074062D01*
X145715119Y-117162465D01*
X145900312Y-117222638D01*
X146092638Y-117253100D01*
X146092639Y-117253100D01*
X146287361Y-117253100D01*
X146287362Y-117253100D01*
X146479688Y-117222638D01*
X146664881Y-117162465D01*
X146838382Y-117074062D01*
X146995916Y-116959607D01*
X147133607Y-116821916D01*
X147248062Y-116664382D01*
X147336465Y-116490881D01*
X147342069Y-116473632D01*
X147381506Y-116415957D01*
X147445864Y-116388758D01*
X147514710Y-116400672D01*
X147566187Y-116447916D01*
X147577931Y-116473633D01*
X147583535Y-116490882D01*
X147656111Y-116633319D01*
X147671938Y-116664382D01*
X147786393Y-116821916D01*
X147924084Y-116959607D01*
X148081618Y-117074062D01*
X148255119Y-117162465D01*
X148440312Y-117222638D01*
X148632638Y-117253100D01*
X148632639Y-117253100D01*
X148827361Y-117253100D01*
X148827362Y-117253100D01*
X149019688Y-117222638D01*
X149204881Y-117162465D01*
X149378382Y-117074062D01*
X149535916Y-116959607D01*
X149673607Y-116821916D01*
X149788062Y-116664382D01*
X149876465Y-116490881D01*
X149882069Y-116473632D01*
X149921506Y-116415957D01*
X149985864Y-116388758D01*
X150054710Y-116400672D01*
X150106187Y-116447916D01*
X150117931Y-116473633D01*
X150123535Y-116490882D01*
X150196111Y-116633319D01*
X150211938Y-116664382D01*
X150326393Y-116821916D01*
X150464084Y-116959607D01*
X150621618Y-117074062D01*
X150795119Y-117162465D01*
X150980312Y-117222638D01*
X151172638Y-117253100D01*
X151172639Y-117253100D01*
X151367361Y-117253100D01*
X151367362Y-117253100D01*
X151559688Y-117222638D01*
X151744881Y-117162465D01*
X151918382Y-117074062D01*
X152075916Y-116959607D01*
X152213607Y-116821916D01*
X152328062Y-116664382D01*
X152416465Y-116490881D01*
X152422069Y-116473632D01*
X152461506Y-116415957D01*
X152525864Y-116388758D01*
X152594710Y-116400672D01*
X152646187Y-116447916D01*
X152657931Y-116473633D01*
X152663535Y-116490882D01*
X152736111Y-116633319D01*
X152751938Y-116664382D01*
X152866393Y-116821916D01*
X153004084Y-116959607D01*
X153161618Y-117074062D01*
X153335119Y-117162465D01*
X153520312Y-117222638D01*
X153712638Y-117253100D01*
X153712639Y-117253100D01*
X153907361Y-117253100D01*
X153907362Y-117253100D01*
X154099688Y-117222638D01*
X154284881Y-117162465D01*
X154458382Y-117074062D01*
X154615916Y-116959607D01*
X154753607Y-116821916D01*
X154868062Y-116664382D01*
X154956465Y-116490881D01*
X154962332Y-116472823D01*
X155001766Y-116415151D01*
X155066123Y-116387951D01*
X155134970Y-116399863D01*
X155186447Y-116447106D01*
X155198193Y-116472822D01*
X155204000Y-116490695D01*
X155292366Y-116664122D01*
X155315912Y-116696531D01*
X155315913Y-116696531D01*
X155881244Y-116131201D01*
X155900289Y-116202277D01*
X155963824Y-116312323D01*
X156053677Y-116402176D01*
X156163723Y-116465711D01*
X156234797Y-116484755D01*
X155669467Y-117050085D01*
X155701883Y-117073636D01*
X155875305Y-117162000D01*
X156060428Y-117222151D01*
X156252672Y-117252600D01*
X156447328Y-117252600D01*
X156639571Y-117222151D01*
X156824694Y-117162000D01*
X156998112Y-117073638D01*
X156998125Y-117073630D01*
X157030531Y-117050086D01*
X157030532Y-117050085D01*
X156465202Y-116484755D01*
X156536277Y-116465711D01*
X156646323Y-116402176D01*
X156736176Y-116312323D01*
X156799711Y-116202277D01*
X156818755Y-116131202D01*
X157384085Y-116696532D01*
X157384086Y-116696531D01*
X157407630Y-116664125D01*
X157407638Y-116664112D01*
X157496000Y-116490693D01*
X157501805Y-116472827D01*
X157541241Y-116415151D01*
X157605599Y-116387951D01*
X157674445Y-116399863D01*
X157725922Y-116447106D01*
X157737666Y-116472819D01*
X157737667Y-116472822D01*
X157737668Y-116472823D01*
X157743536Y-116490885D01*
X157821583Y-116644060D01*
X157831938Y-116664382D01*
X157946393Y-116821916D01*
X158084084Y-116959607D01*
X158241618Y-117074062D01*
X158415119Y-117162465D01*
X158600312Y-117222638D01*
X158792638Y-117253100D01*
X158792639Y-117253100D01*
X158987361Y-117253100D01*
X158987362Y-117253100D01*
X159179688Y-117222638D01*
X159364881Y-117162465D01*
X159538382Y-117074062D01*
X159695916Y-116959607D01*
X159833607Y-116821916D01*
X159948062Y-116664382D01*
X160036465Y-116490881D01*
X160042069Y-116473632D01*
X160081506Y-116415957D01*
X160145864Y-116388758D01*
X160214710Y-116400672D01*
X160266187Y-116447916D01*
X160277931Y-116473633D01*
X160283535Y-116490882D01*
X160356111Y-116633319D01*
X160371938Y-116664382D01*
X160486393Y-116821916D01*
X160624084Y-116959607D01*
X160781618Y-117074062D01*
X160955119Y-117162465D01*
X161140312Y-117222638D01*
X161332638Y-117253100D01*
X161332639Y-117253100D01*
X161527361Y-117253100D01*
X161527362Y-117253100D01*
X161719688Y-117222638D01*
X161904881Y-117162465D01*
X162078382Y-117074062D01*
X162235916Y-116959607D01*
X162373607Y-116821916D01*
X162488062Y-116664382D01*
X162576465Y-116490881D01*
X162582069Y-116473632D01*
X162621506Y-116415957D01*
X162685864Y-116388758D01*
X162754710Y-116400672D01*
X162806187Y-116447916D01*
X162817931Y-116473633D01*
X162823535Y-116490882D01*
X162896111Y-116633319D01*
X162911938Y-116664382D01*
X163026393Y-116821916D01*
X163164084Y-116959607D01*
X163321618Y-117074062D01*
X163495119Y-117162465D01*
X163680312Y-117222638D01*
X163872638Y-117253100D01*
X163872639Y-117253100D01*
X164067361Y-117253100D01*
X164067362Y-117253100D01*
X164259688Y-117222638D01*
X164444881Y-117162465D01*
X164618382Y-117074062D01*
X164775916Y-116959607D01*
X164913607Y-116821916D01*
X165028062Y-116664382D01*
X165116465Y-116490881D01*
X165122069Y-116473632D01*
X165161506Y-116415957D01*
X165225864Y-116388758D01*
X165294710Y-116400672D01*
X165346187Y-116447916D01*
X165357931Y-116473633D01*
X165363535Y-116490882D01*
X165436111Y-116633319D01*
X165451938Y-116664382D01*
X165566393Y-116821916D01*
X165704084Y-116959607D01*
X165861618Y-117074062D01*
X166035119Y-117162465D01*
X166220312Y-117222638D01*
X166412638Y-117253100D01*
X166412639Y-117253100D01*
X166607361Y-117253100D01*
X166607362Y-117253100D01*
X166799688Y-117222638D01*
X166984881Y-117162465D01*
X167158382Y-117074062D01*
X167315916Y-116959607D01*
X167453607Y-116821916D01*
X167568062Y-116664382D01*
X167656465Y-116490881D01*
X167662069Y-116473632D01*
X167701506Y-116415957D01*
X167765864Y-116388758D01*
X167834710Y-116400672D01*
X167886187Y-116447916D01*
X167897931Y-116473633D01*
X167903535Y-116490882D01*
X167976111Y-116633319D01*
X167991938Y-116664382D01*
X168106393Y-116821916D01*
X168244084Y-116959607D01*
X168401618Y-117074062D01*
X168575119Y-117162465D01*
X168760312Y-117222638D01*
X168952638Y-117253100D01*
X168952639Y-117253100D01*
X169147361Y-117253100D01*
X169147362Y-117253100D01*
X169339688Y-117222638D01*
X169524881Y-117162465D01*
X169698382Y-117074062D01*
X169855916Y-116959607D01*
X169993607Y-116821916D01*
X170108062Y-116664382D01*
X170196465Y-116490881D01*
X170202069Y-116473632D01*
X170241506Y-116415957D01*
X170305864Y-116388758D01*
X170374710Y-116400672D01*
X170426187Y-116447916D01*
X170437931Y-116473633D01*
X170443535Y-116490882D01*
X170516111Y-116633319D01*
X170531938Y-116664382D01*
X170646393Y-116821916D01*
X170784084Y-116959607D01*
X170941618Y-117074062D01*
X171115119Y-117162465D01*
X171300312Y-117222638D01*
X171492638Y-117253100D01*
X171492639Y-117253100D01*
X171687361Y-117253100D01*
X171687362Y-117253100D01*
X171879688Y-117222638D01*
X172064881Y-117162465D01*
X172238382Y-117074062D01*
X172395916Y-116959607D01*
X172533607Y-116821916D01*
X172648062Y-116664382D01*
X172736465Y-116490881D01*
X172742332Y-116472823D01*
X172781766Y-116415151D01*
X172846123Y-116387951D01*
X172914970Y-116399863D01*
X172966447Y-116447106D01*
X172978193Y-116472822D01*
X172984000Y-116490695D01*
X173072366Y-116664122D01*
X173095912Y-116696531D01*
X173095913Y-116696531D01*
X173661244Y-116131201D01*
X173680289Y-116202277D01*
X173743824Y-116312323D01*
X173833677Y-116402176D01*
X173943723Y-116465711D01*
X174014797Y-116484755D01*
X173449467Y-117050085D01*
X173481883Y-117073636D01*
X173655305Y-117162000D01*
X173840428Y-117222151D01*
X174032672Y-117252600D01*
X174227328Y-117252600D01*
X174419571Y-117222151D01*
X174604694Y-117162000D01*
X174778112Y-117073638D01*
X174778125Y-117073630D01*
X174810531Y-117050086D01*
X174810532Y-117050085D01*
X174245202Y-116484755D01*
X174316277Y-116465711D01*
X174426323Y-116402176D01*
X174516176Y-116312323D01*
X174579711Y-116202277D01*
X174598755Y-116131201D01*
X175164085Y-116696532D01*
X175164086Y-116696531D01*
X175187630Y-116664125D01*
X175187638Y-116664112D01*
X175276000Y-116490694D01*
X175336151Y-116305571D01*
X175366600Y-116113328D01*
X175366600Y-115918671D01*
X175336151Y-115726428D01*
X175276000Y-115541305D01*
X175187636Y-115367883D01*
X175164085Y-115335467D01*
X174598755Y-115900797D01*
X174579711Y-115829723D01*
X174516176Y-115719677D01*
X174426323Y-115629824D01*
X174316277Y-115566289D01*
X174245202Y-115547244D01*
X174810531Y-114981913D01*
X174810531Y-114981912D01*
X174793837Y-114969784D01*
X174778121Y-114958366D01*
X174613195Y-114874331D01*
X181486800Y-114874331D01*
X181486800Y-115125668D01*
X181526115Y-115373895D01*
X181603781Y-115612924D01*
X181710855Y-115823065D01*
X181717880Y-115836853D01*
X181865606Y-116040180D01*
X182043320Y-116217894D01*
X182246647Y-116365620D01*
X182315440Y-116400672D01*
X182470575Y-116479718D01*
X182470577Y-116479718D01*
X182470580Y-116479720D01*
X182528687Y-116498600D01*
X182709604Y-116557384D01*
X182957832Y-116596700D01*
X182957837Y-116596700D01*
X183209168Y-116596700D01*
X183457395Y-116557384D01*
X183696420Y-116479720D01*
X183920353Y-116365620D01*
X184123680Y-116217894D01*
X184301394Y-116040180D01*
X184449120Y-115836853D01*
X184456145Y-115823065D01*
X190349500Y-115823065D01*
X190349500Y-116176934D01*
X190389116Y-116528545D01*
X190389118Y-116528557D01*
X190389119Y-116528560D01*
X190402586Y-116587563D01*
X190467859Y-116873543D01*
X190467860Y-116873545D01*
X190584731Y-117207545D01*
X190738262Y-117526355D01*
X190738264Y-117526358D01*
X190926527Y-117825976D01*
X191007751Y-117927828D01*
X191129167Y-118080080D01*
X191147153Y-118102633D01*
X191397367Y-118352847D01*
X191674024Y-118573473D01*
X191973642Y-118761736D01*
X192292456Y-118915269D01*
X192626456Y-119032140D01*
X192971440Y-119110881D01*
X192971449Y-119110882D01*
X192971454Y-119110883D01*
X193205861Y-119137293D01*
X193323066Y-119150499D01*
X193323069Y-119150500D01*
X193323072Y-119150500D01*
X193676931Y-119150500D01*
X193676932Y-119150499D01*
X193856635Y-119130252D01*
X194028545Y-119110883D01*
X194028548Y-119110882D01*
X194028560Y-119110881D01*
X194373544Y-119032140D01*
X194707544Y-118915269D01*
X195026358Y-118761736D01*
X195325976Y-118573473D01*
X195602633Y-118352847D01*
X195852847Y-118102633D01*
X196073473Y-117825976D01*
X196261736Y-117526358D01*
X196415269Y-117207544D01*
X196532140Y-116873544D01*
X196610881Y-116528560D01*
X196615127Y-116490881D01*
X196631787Y-116343011D01*
X196650500Y-116176928D01*
X196650500Y-115823072D01*
X196628896Y-115631326D01*
X196610883Y-115471454D01*
X196610882Y-115471449D01*
X196610881Y-115471440D01*
X196532140Y-115126456D01*
X196415269Y-114792456D01*
X196261736Y-114473642D01*
X196073473Y-114174024D01*
X195852847Y-113897367D01*
X195602633Y-113647153D01*
X195325976Y-113426527D01*
X195026358Y-113238264D01*
X195026355Y-113238262D01*
X194707545Y-113084731D01*
X194373545Y-112967860D01*
X194373543Y-112967859D01*
X194107300Y-112907091D01*
X194028560Y-112889119D01*
X194028557Y-112889118D01*
X194028545Y-112889116D01*
X193676934Y-112849500D01*
X193676928Y-112849500D01*
X193323072Y-112849500D01*
X193323065Y-112849500D01*
X192971454Y-112889116D01*
X192971440Y-112889119D01*
X192626456Y-112967859D01*
X192626454Y-112967860D01*
X192292454Y-113084731D01*
X191973644Y-113238262D01*
X191674025Y-113426526D01*
X191397367Y-113647152D01*
X191147152Y-113897367D01*
X190926526Y-114174025D01*
X190738262Y-114473644D01*
X190584731Y-114792454D01*
X190467860Y-115126454D01*
X190467859Y-115126456D01*
X190389119Y-115471440D01*
X190389116Y-115471454D01*
X190349500Y-115823065D01*
X184456145Y-115823065D01*
X184563220Y-115612920D01*
X184640884Y-115373895D01*
X184641878Y-115367617D01*
X184680200Y-115125668D01*
X184680200Y-114874331D01*
X184640884Y-114626104D01*
X184591346Y-114473642D01*
X184563220Y-114387080D01*
X184563218Y-114387077D01*
X184563218Y-114387075D01*
X184474397Y-114212756D01*
X184449120Y-114163147D01*
X184301394Y-113959820D01*
X184123680Y-113782106D01*
X183920353Y-113634380D01*
X183696424Y-113520281D01*
X183457395Y-113442615D01*
X183209168Y-113403300D01*
X183209163Y-113403300D01*
X182957837Y-113403300D01*
X182957832Y-113403300D01*
X182709604Y-113442615D01*
X182470575Y-113520281D01*
X182246646Y-113634380D01*
X182130641Y-113718663D01*
X182043320Y-113782106D01*
X182043318Y-113782108D01*
X182043317Y-113782108D01*
X181865608Y-113959817D01*
X181865608Y-113959818D01*
X181865606Y-113959820D01*
X181802163Y-114047141D01*
X181717880Y-114163146D01*
X181603781Y-114387075D01*
X181526115Y-114626104D01*
X181486800Y-114874331D01*
X174613195Y-114874331D01*
X174604695Y-114870000D01*
X174586822Y-114864193D01*
X174529147Y-114824754D01*
X174501950Y-114760395D01*
X174513865Y-114691549D01*
X174561110Y-114640074D01*
X174586818Y-114628333D01*
X174604881Y-114622465D01*
X174778382Y-114534062D01*
X174935916Y-114419607D01*
X175073607Y-114281916D01*
X175188062Y-114124382D01*
X175276465Y-113950881D01*
X175336638Y-113765688D01*
X175367100Y-113573362D01*
X175367100Y-113378638D01*
X175336638Y-113186312D01*
X175276465Y-113001119D01*
X175188062Y-112827618D01*
X175073607Y-112670084D01*
X174935916Y-112532393D01*
X174778382Y-112417938D01*
X174604881Y-112329535D01*
X174419688Y-112269362D01*
X174419686Y-112269361D01*
X174419684Y-112269361D01*
X174285400Y-112248092D01*
X174227362Y-112238900D01*
X174032638Y-112238900D01*
X173988053Y-112245961D01*
X173840315Y-112269361D01*
X173655116Y-112329536D01*
X173481617Y-112417938D01*
X173324081Y-112532395D01*
X173186395Y-112670081D01*
X173071938Y-112827617D01*
X172983536Y-113001114D01*
X172980564Y-113010261D01*
X172977929Y-113018369D01*
X172938493Y-113076043D01*
X172874134Y-113103241D01*
X172805288Y-113091326D01*
X172753812Y-113044082D01*
X172742070Y-113018372D01*
X172736465Y-113001119D01*
X172736463Y-113001116D01*
X172736463Y-113001114D01*
X172648197Y-112827883D01*
X172648062Y-112827618D01*
X172533607Y-112670084D01*
X172395916Y-112532393D01*
X172238382Y-112417938D01*
X172064881Y-112329535D01*
X171879688Y-112269362D01*
X171879686Y-112269361D01*
X171879684Y-112269361D01*
X171745400Y-112248092D01*
X171687362Y-112238900D01*
X171492638Y-112238900D01*
X171448053Y-112245961D01*
X171300315Y-112269361D01*
X171115116Y-112329536D01*
X170941617Y-112417938D01*
X170784081Y-112532395D01*
X170646395Y-112670081D01*
X170531938Y-112827617D01*
X170443536Y-113001114D01*
X170440564Y-113010261D01*
X170437929Y-113018369D01*
X170398493Y-113076043D01*
X170334134Y-113103241D01*
X170265288Y-113091326D01*
X170213812Y-113044082D01*
X170202070Y-113018372D01*
X170196465Y-113001119D01*
X170196463Y-113001116D01*
X170196463Y-113001114D01*
X170108197Y-112827883D01*
X170108062Y-112827618D01*
X169993607Y-112670084D01*
X169855916Y-112532393D01*
X169698382Y-112417938D01*
X169524881Y-112329535D01*
X169339688Y-112269362D01*
X169339686Y-112269361D01*
X169339684Y-112269361D01*
X169205400Y-112248092D01*
X169147362Y-112238900D01*
X168952638Y-112238900D01*
X168908053Y-112245961D01*
X168760315Y-112269361D01*
X168575116Y-112329536D01*
X168401617Y-112417938D01*
X168244081Y-112532395D01*
X168106395Y-112670081D01*
X167991938Y-112827617D01*
X167903535Y-113001117D01*
X167897667Y-113019178D01*
X167858228Y-113076852D01*
X167793869Y-113104049D01*
X167725023Y-113092133D01*
X167673548Y-113044888D01*
X167661805Y-113019173D01*
X167655999Y-113001305D01*
X167567636Y-112827883D01*
X167544085Y-112795467D01*
X166978755Y-113360797D01*
X166959711Y-113289723D01*
X166896176Y-113179677D01*
X166806323Y-113089824D01*
X166696277Y-113026289D01*
X166625202Y-113007244D01*
X167190531Y-112441913D01*
X167190531Y-112441912D01*
X167158122Y-112418366D01*
X166984694Y-112329999D01*
X166799571Y-112269848D01*
X166607328Y-112239400D01*
X166412672Y-112239400D01*
X166220428Y-112269848D01*
X166035305Y-112329999D01*
X165861877Y-112418366D01*
X165829467Y-112441913D01*
X165829466Y-112441913D01*
X166394798Y-113007244D01*
X166323723Y-113026289D01*
X166213677Y-113089824D01*
X166123824Y-113179677D01*
X166060289Y-113289723D01*
X166041244Y-113360797D01*
X165475913Y-112795466D01*
X165475913Y-112795467D01*
X165452366Y-112827877D01*
X165363998Y-113001308D01*
X165358192Y-113019178D01*
X165318753Y-113076853D01*
X165254394Y-113104049D01*
X165185548Y-113092133D01*
X165134073Y-113044888D01*
X165122333Y-113019181D01*
X165116465Y-113001119D01*
X165028062Y-112827618D01*
X164913607Y-112670084D01*
X164775916Y-112532393D01*
X164618382Y-112417938D01*
X164444881Y-112329535D01*
X164259688Y-112269362D01*
X164259686Y-112269361D01*
X164259684Y-112269361D01*
X164125400Y-112248092D01*
X164067362Y-112238900D01*
X163872638Y-112238900D01*
X163828053Y-112245961D01*
X163680315Y-112269361D01*
X163495116Y-112329536D01*
X163321617Y-112417938D01*
X163164081Y-112532395D01*
X163026395Y-112670081D01*
X162911938Y-112827617D01*
X162823535Y-113001117D01*
X162817667Y-113019178D01*
X162778228Y-113076852D01*
X162713869Y-113104049D01*
X162645023Y-113092133D01*
X162593548Y-113044888D01*
X162581805Y-113019173D01*
X162575999Y-113001305D01*
X162487636Y-112827883D01*
X162464085Y-112795467D01*
X161898755Y-113360797D01*
X161879711Y-113289723D01*
X161816176Y-113179677D01*
X161726323Y-113089824D01*
X161616277Y-113026289D01*
X161545202Y-113007244D01*
X162110531Y-112441913D01*
X162110531Y-112441912D01*
X162078122Y-112418366D01*
X161904694Y-112329999D01*
X161719571Y-112269848D01*
X161527328Y-112239400D01*
X161332672Y-112239400D01*
X161140428Y-112269848D01*
X160955305Y-112329999D01*
X160781877Y-112418366D01*
X160749467Y-112441913D01*
X160749466Y-112441913D01*
X161314798Y-113007244D01*
X161243723Y-113026289D01*
X161133677Y-113089824D01*
X161043824Y-113179677D01*
X160980289Y-113289723D01*
X160961244Y-113360797D01*
X160395913Y-112795466D01*
X160395913Y-112795467D01*
X160372366Y-112827877D01*
X160283998Y-113001308D01*
X160278192Y-113019178D01*
X160238753Y-113076853D01*
X160174394Y-113104049D01*
X160105548Y-113092133D01*
X160054073Y-113044888D01*
X160042333Y-113019181D01*
X160036465Y-113001119D01*
X159948062Y-112827618D01*
X159833607Y-112670084D01*
X159695916Y-112532393D01*
X159538382Y-112417938D01*
X159364881Y-112329535D01*
X159179688Y-112269362D01*
X159179686Y-112269361D01*
X159179684Y-112269361D01*
X159045400Y-112248092D01*
X158987362Y-112238900D01*
X158792638Y-112238900D01*
X158748053Y-112245961D01*
X158600315Y-112269361D01*
X158415116Y-112329536D01*
X158241617Y-112417938D01*
X158084081Y-112532395D01*
X157946395Y-112670081D01*
X157831938Y-112827617D01*
X157743536Y-113001114D01*
X157740564Y-113010261D01*
X157737929Y-113018369D01*
X157698493Y-113076043D01*
X157634134Y-113103241D01*
X157565288Y-113091326D01*
X157513812Y-113044082D01*
X157502070Y-113018372D01*
X157496465Y-113001119D01*
X157496463Y-113001116D01*
X157496463Y-113001114D01*
X157408197Y-112827883D01*
X157408062Y-112827618D01*
X157293607Y-112670084D01*
X157155916Y-112532393D01*
X156998382Y-112417938D01*
X156824881Y-112329535D01*
X156639688Y-112269362D01*
X156639686Y-112269361D01*
X156639684Y-112269361D01*
X156505400Y-112248092D01*
X156447362Y-112238900D01*
X156252638Y-112238900D01*
X156208053Y-112245961D01*
X156060315Y-112269361D01*
X155875116Y-112329536D01*
X155701617Y-112417938D01*
X155544081Y-112532395D01*
X155406395Y-112670081D01*
X155291938Y-112827617D01*
X155203536Y-113001114D01*
X155200564Y-113010261D01*
X155197929Y-113018369D01*
X155158493Y-113076043D01*
X155094134Y-113103241D01*
X155025288Y-113091326D01*
X154973812Y-113044082D01*
X154962070Y-113018372D01*
X154956465Y-113001119D01*
X154956463Y-113001116D01*
X154956463Y-113001114D01*
X154868197Y-112827883D01*
X154868062Y-112827618D01*
X154753607Y-112670084D01*
X154615916Y-112532393D01*
X154458382Y-112417938D01*
X154284881Y-112329535D01*
X154099688Y-112269362D01*
X154099686Y-112269361D01*
X154099684Y-112269361D01*
X153965400Y-112248092D01*
X153907362Y-112238900D01*
X153712638Y-112238900D01*
X153668053Y-112245961D01*
X153520315Y-112269361D01*
X153335116Y-112329536D01*
X153161617Y-112417938D01*
X153004081Y-112532395D01*
X152866395Y-112670081D01*
X152751938Y-112827617D01*
X152663536Y-113001114D01*
X152660564Y-113010261D01*
X152657929Y-113018369D01*
X152618493Y-113076043D01*
X152554134Y-113103241D01*
X152485288Y-113091326D01*
X152433812Y-113044082D01*
X152422070Y-113018372D01*
X152416465Y-113001119D01*
X152416463Y-113001116D01*
X152416463Y-113001114D01*
X152328197Y-112827883D01*
X152328062Y-112827618D01*
X152213607Y-112670084D01*
X152075916Y-112532393D01*
X151918382Y-112417938D01*
X151744881Y-112329535D01*
X151559688Y-112269362D01*
X151559686Y-112269361D01*
X151559684Y-112269361D01*
X151425400Y-112248092D01*
X151367362Y-112238900D01*
X151172638Y-112238900D01*
X151128053Y-112245961D01*
X150980315Y-112269361D01*
X150795116Y-112329536D01*
X150621617Y-112417938D01*
X150464081Y-112532395D01*
X150326395Y-112670081D01*
X150211938Y-112827617D01*
X150123535Y-113001117D01*
X150117667Y-113019178D01*
X150078228Y-113076852D01*
X150013869Y-113104049D01*
X149945023Y-113092133D01*
X149893548Y-113044888D01*
X149881805Y-113019173D01*
X149875999Y-113001305D01*
X149787636Y-112827883D01*
X149764085Y-112795467D01*
X149198755Y-113360797D01*
X149179711Y-113289723D01*
X149116176Y-113179677D01*
X149026323Y-113089824D01*
X148916277Y-113026289D01*
X148845202Y-113007244D01*
X149410531Y-112441913D01*
X149410531Y-112441912D01*
X149378122Y-112418366D01*
X149204694Y-112329999D01*
X149019571Y-112269848D01*
X148827328Y-112239400D01*
X148632672Y-112239400D01*
X148440428Y-112269848D01*
X148255305Y-112329999D01*
X148081877Y-112418366D01*
X148049467Y-112441913D01*
X148049466Y-112441913D01*
X148614798Y-113007244D01*
X148543723Y-113026289D01*
X148433677Y-113089824D01*
X148343824Y-113179677D01*
X148280289Y-113289723D01*
X148261244Y-113360797D01*
X147695913Y-112795466D01*
X147695913Y-112795467D01*
X147672366Y-112827877D01*
X147583998Y-113001308D01*
X147578192Y-113019178D01*
X147538753Y-113076853D01*
X147474394Y-113104049D01*
X147405548Y-113092133D01*
X147354073Y-113044888D01*
X147342333Y-113019181D01*
X147336465Y-113001119D01*
X147248062Y-112827618D01*
X147133607Y-112670084D01*
X146995916Y-112532393D01*
X146838382Y-112417938D01*
X146664881Y-112329535D01*
X146479688Y-112269362D01*
X146479686Y-112269361D01*
X146479684Y-112269361D01*
X146345400Y-112248092D01*
X146287362Y-112238900D01*
X146092638Y-112238900D01*
X146048053Y-112245961D01*
X145900315Y-112269361D01*
X145715116Y-112329536D01*
X145541617Y-112417938D01*
X145384081Y-112532395D01*
X145246395Y-112670081D01*
X145131938Y-112827617D01*
X145043536Y-113001114D01*
X145040564Y-113010261D01*
X145037929Y-113018369D01*
X144998493Y-113076043D01*
X144934134Y-113103241D01*
X144865288Y-113091326D01*
X144813812Y-113044082D01*
X144802070Y-113018372D01*
X144796465Y-113001119D01*
X144796463Y-113001116D01*
X144796463Y-113001114D01*
X144708197Y-112827883D01*
X144708062Y-112827618D01*
X144593607Y-112670084D01*
X144455916Y-112532393D01*
X144298382Y-112417938D01*
X144124881Y-112329535D01*
X143939688Y-112269362D01*
X143939686Y-112269361D01*
X143939684Y-112269361D01*
X143805400Y-112248092D01*
X143747362Y-112238900D01*
X143552638Y-112238900D01*
X143508053Y-112245961D01*
X143360315Y-112269361D01*
X143175116Y-112329536D01*
X143001617Y-112417938D01*
X142844081Y-112532395D01*
X142706395Y-112670081D01*
X142591938Y-112827617D01*
X142503535Y-113001117D01*
X142497667Y-113019178D01*
X142458228Y-113076852D01*
X142393869Y-113104049D01*
X142325023Y-113092133D01*
X142273548Y-113044888D01*
X142261805Y-113019173D01*
X142255999Y-113001305D01*
X142167636Y-112827883D01*
X142144085Y-112795467D01*
X141578755Y-113360797D01*
X141559711Y-113289723D01*
X141496176Y-113179677D01*
X141406323Y-113089824D01*
X141296277Y-113026289D01*
X141225202Y-113007244D01*
X141790531Y-112441913D01*
X141790531Y-112441912D01*
X141758122Y-112418366D01*
X141584694Y-112329999D01*
X141399571Y-112269848D01*
X141207328Y-112239400D01*
X141012672Y-112239400D01*
X140820428Y-112269848D01*
X140635305Y-112329999D01*
X140461877Y-112418366D01*
X140429467Y-112441913D01*
X140429466Y-112441913D01*
X140994798Y-113007244D01*
X140923723Y-113026289D01*
X140813677Y-113089824D01*
X140723824Y-113179677D01*
X140660289Y-113289723D01*
X140641244Y-113360797D01*
X140075913Y-112795466D01*
X140075913Y-112795467D01*
X140052366Y-112827877D01*
X139963998Y-113001308D01*
X139958192Y-113019178D01*
X139918753Y-113076853D01*
X139854394Y-113104049D01*
X139785548Y-113092133D01*
X139734073Y-113044888D01*
X139722333Y-113019181D01*
X139716465Y-113001119D01*
X139628062Y-112827618D01*
X139513607Y-112670084D01*
X139375916Y-112532393D01*
X139218382Y-112417938D01*
X139044881Y-112329535D01*
X138859688Y-112269362D01*
X138859686Y-112269361D01*
X138859684Y-112269361D01*
X138725400Y-112248092D01*
X138667362Y-112238900D01*
X138472638Y-112238900D01*
X138428053Y-112245961D01*
X138280315Y-112269361D01*
X138095116Y-112329536D01*
X137921617Y-112417938D01*
X137764081Y-112532395D01*
X137626395Y-112670081D01*
X137511938Y-112827617D01*
X137423536Y-113001114D01*
X137420564Y-113010261D01*
X137417929Y-113018369D01*
X137378493Y-113076043D01*
X137314134Y-113103241D01*
X137245288Y-113091326D01*
X137193812Y-113044082D01*
X137182070Y-113018372D01*
X137176465Y-113001119D01*
X137176463Y-113001116D01*
X137176463Y-113001114D01*
X137088197Y-112827883D01*
X137088062Y-112827618D01*
X136973607Y-112670084D01*
X136835916Y-112532393D01*
X136678382Y-112417938D01*
X136504881Y-112329535D01*
X136319688Y-112269362D01*
X136319686Y-112269361D01*
X136319684Y-112269361D01*
X136185400Y-112248092D01*
X136127362Y-112238900D01*
X135932638Y-112238900D01*
X135888053Y-112245961D01*
X135740315Y-112269361D01*
X135555116Y-112329536D01*
X135381617Y-112417938D01*
X135224081Y-112532395D01*
X135086395Y-112670081D01*
X134971938Y-112827617D01*
X134883536Y-113001114D01*
X134880564Y-113010261D01*
X134877929Y-113018369D01*
X134838493Y-113076043D01*
X134774134Y-113103241D01*
X134705288Y-113091326D01*
X134653812Y-113044082D01*
X134642070Y-113018372D01*
X134636465Y-113001119D01*
X134636463Y-113001116D01*
X134636463Y-113001114D01*
X134548197Y-112827883D01*
X134548062Y-112827618D01*
X134433607Y-112670084D01*
X134295916Y-112532393D01*
X134138382Y-112417938D01*
X133964881Y-112329535D01*
X133779688Y-112269362D01*
X133779686Y-112269361D01*
X133779684Y-112269361D01*
X133645400Y-112248092D01*
X133587362Y-112238900D01*
X133392638Y-112238900D01*
X133348053Y-112245961D01*
X133200315Y-112269361D01*
X133015116Y-112329536D01*
X132841617Y-112417938D01*
X132684081Y-112532395D01*
X132546395Y-112670081D01*
X132431938Y-112827617D01*
X132343535Y-113001117D01*
X132337667Y-113019178D01*
X132298228Y-113076852D01*
X132233869Y-113104049D01*
X132165023Y-113092133D01*
X132113548Y-113044888D01*
X132101805Y-113019173D01*
X132095999Y-113001305D01*
X132007636Y-112827883D01*
X131984085Y-112795467D01*
X131418755Y-113360797D01*
X131399711Y-113289723D01*
X131336176Y-113179677D01*
X131246323Y-113089824D01*
X131136277Y-113026289D01*
X131065202Y-113007244D01*
X131630531Y-112441913D01*
X131630531Y-112441912D01*
X131598122Y-112418366D01*
X131424694Y-112329999D01*
X131239571Y-112269848D01*
X131047328Y-112239400D01*
X130852672Y-112239400D01*
X130660428Y-112269848D01*
X130475305Y-112329999D01*
X130301877Y-112418366D01*
X130269467Y-112441913D01*
X130269466Y-112441913D01*
X130834798Y-113007244D01*
X130763723Y-113026289D01*
X130653677Y-113089824D01*
X130563824Y-113179677D01*
X130500289Y-113289723D01*
X130481244Y-113360797D01*
X129915913Y-112795466D01*
X129915913Y-112795467D01*
X129892366Y-112827877D01*
X129803998Y-113001308D01*
X129798192Y-113019178D01*
X129758753Y-113076853D01*
X129694394Y-113104049D01*
X129625548Y-113092133D01*
X129574073Y-113044888D01*
X129562333Y-113019181D01*
X129556465Y-113001119D01*
X129468062Y-112827618D01*
X129353607Y-112670084D01*
X129215916Y-112532393D01*
X129058382Y-112417938D01*
X128884881Y-112329535D01*
X128699688Y-112269362D01*
X128699686Y-112269361D01*
X128699684Y-112269361D01*
X128565400Y-112248092D01*
X128507362Y-112238900D01*
X128312638Y-112238900D01*
X128268053Y-112245961D01*
X128120315Y-112269361D01*
X127935116Y-112329536D01*
X127761617Y-112417938D01*
X127604081Y-112532395D01*
X127466395Y-112670081D01*
X127351938Y-112827617D01*
X127263536Y-113001114D01*
X127260564Y-113010261D01*
X127257929Y-113018369D01*
X127218493Y-113076043D01*
X127154134Y-113103241D01*
X127085288Y-113091326D01*
X127033812Y-113044082D01*
X127022070Y-113018372D01*
X127016465Y-113001119D01*
X127016463Y-113001116D01*
X127016463Y-113001114D01*
X126928197Y-112827883D01*
X126928062Y-112827618D01*
X126813607Y-112670084D01*
X126675916Y-112532393D01*
X126518382Y-112417938D01*
X126344881Y-112329535D01*
X126159688Y-112269362D01*
X126159686Y-112269361D01*
X126159684Y-112269361D01*
X126025400Y-112248092D01*
X125967362Y-112238900D01*
X125772638Y-112238900D01*
X125728053Y-112245961D01*
X125580315Y-112269361D01*
X125395116Y-112329536D01*
X125221617Y-112417938D01*
X125064081Y-112532395D01*
X124926395Y-112670081D01*
X124811938Y-112827617D01*
X124723536Y-113001116D01*
X124663361Y-113186315D01*
X124655133Y-113238264D01*
X124632900Y-113378638D01*
X108249761Y-113378638D01*
X108026358Y-113238264D01*
X108026355Y-113238262D01*
X107707545Y-113084731D01*
X107373545Y-112967860D01*
X107373543Y-112967859D01*
X107107300Y-112907091D01*
X107028560Y-112889119D01*
X107028557Y-112889118D01*
X107028545Y-112889116D01*
X106676934Y-112849500D01*
X106676928Y-112849500D01*
X106323072Y-112849500D01*
X106323065Y-112849500D01*
X105971454Y-112889116D01*
X105971440Y-112889119D01*
X105626456Y-112967859D01*
X105626454Y-112967860D01*
X105292454Y-113084731D01*
X104973644Y-113238262D01*
X104674025Y-113426526D01*
X104397367Y-113647152D01*
X104147152Y-113897367D01*
X103926526Y-114174025D01*
X103738262Y-114473644D01*
X103584731Y-114792454D01*
X103467860Y-115126454D01*
X103467859Y-115126456D01*
X103389119Y-115471440D01*
X103389116Y-115471454D01*
X103349500Y-115823065D01*
X103000500Y-115823065D01*
X103000500Y-106416753D01*
X127100000Y-106416753D01*
X127100000Y-106629246D01*
X127133242Y-106839127D01*
X127133242Y-106839130D01*
X127198904Y-107041217D01*
X127295375Y-107230550D01*
X127334728Y-107284716D01*
X127967037Y-106652408D01*
X127984075Y-106715993D01*
X128049901Y-106830007D01*
X128142993Y-106923099D01*
X128257007Y-106988925D01*
X128320590Y-107005962D01*
X127688282Y-107638269D01*
X127688282Y-107638270D01*
X127742449Y-107677624D01*
X127931782Y-107774095D01*
X128133870Y-107839757D01*
X128343754Y-107873000D01*
X128556246Y-107873000D01*
X128766127Y-107839757D01*
X128766130Y-107839757D01*
X128968217Y-107774095D01*
X129157554Y-107677622D01*
X129211716Y-107638270D01*
X129211717Y-107638270D01*
X128579408Y-107005962D01*
X128642993Y-106988925D01*
X128757007Y-106923099D01*
X128850099Y-106830007D01*
X128915925Y-106715993D01*
X128932962Y-106652409D01*
X129565270Y-107284717D01*
X129565270Y-107284716D01*
X129604622Y-107230555D01*
X129609232Y-107221507D01*
X129657205Y-107170709D01*
X129725025Y-107153912D01*
X129791161Y-107176447D01*
X129830204Y-107221504D01*
X129834949Y-107230817D01*
X129959890Y-107402786D01*
X130110213Y-107553109D01*
X130282179Y-107678048D01*
X130282181Y-107678049D01*
X130282184Y-107678051D01*
X130471588Y-107774557D01*
X130673757Y-107840246D01*
X130883713Y-107873500D01*
X130883714Y-107873500D01*
X131096286Y-107873500D01*
X131096287Y-107873500D01*
X131306243Y-107840246D01*
X131508412Y-107774557D01*
X131697816Y-107678051D01*
X131752572Y-107638269D01*
X131869786Y-107553109D01*
X131869788Y-107553106D01*
X131869792Y-107553104D01*
X132020104Y-107402792D01*
X132020106Y-107402788D01*
X132020109Y-107402786D01*
X132145048Y-107230820D01*
X132145050Y-107230817D01*
X132145051Y-107230816D01*
X132149514Y-107222054D01*
X132197488Y-107171259D01*
X132265308Y-107154463D01*
X132331444Y-107176999D01*
X132370486Y-107222056D01*
X132374951Y-107230820D01*
X132499890Y-107402786D01*
X132650213Y-107553109D01*
X132822179Y-107678048D01*
X132822181Y-107678049D01*
X132822184Y-107678051D01*
X133011588Y-107774557D01*
X133213757Y-107840246D01*
X133423713Y-107873500D01*
X133423714Y-107873500D01*
X133636286Y-107873500D01*
X133636287Y-107873500D01*
X133846243Y-107840246D01*
X134048412Y-107774557D01*
X134237816Y-107678051D01*
X134292572Y-107638269D01*
X134409786Y-107553109D01*
X134409788Y-107553106D01*
X134409792Y-107553104D01*
X134560104Y-107402792D01*
X134560106Y-107402788D01*
X134560109Y-107402786D01*
X134685048Y-107230820D01*
X134685050Y-107230817D01*
X134685051Y-107230816D01*
X134689514Y-107222054D01*
X134737488Y-107171259D01*
X134805308Y-107154463D01*
X134871444Y-107176999D01*
X134910486Y-107222056D01*
X134914951Y-107230820D01*
X135039890Y-107402786D01*
X135190213Y-107553109D01*
X135362179Y-107678048D01*
X135362181Y-107678049D01*
X135362184Y-107678051D01*
X135551588Y-107774557D01*
X135753757Y-107840246D01*
X135963713Y-107873500D01*
X135963714Y-107873500D01*
X136176286Y-107873500D01*
X136176287Y-107873500D01*
X136386243Y-107840246D01*
X136588412Y-107774557D01*
X136777816Y-107678051D01*
X136832572Y-107638269D01*
X136949786Y-107553109D01*
X136949788Y-107553106D01*
X136949792Y-107553104D01*
X137100104Y-107402792D01*
X137100106Y-107402788D01*
X137100109Y-107402786D01*
X137225048Y-107230820D01*
X137225050Y-107230817D01*
X137225051Y-107230816D01*
X137229514Y-107222054D01*
X137277488Y-107171259D01*
X137345308Y-107154463D01*
X137411444Y-107176999D01*
X137450486Y-107222056D01*
X137454951Y-107230820D01*
X137579890Y-107402786D01*
X137730213Y-107553109D01*
X137902179Y-107678048D01*
X137902181Y-107678049D01*
X137902184Y-107678051D01*
X138091588Y-107774557D01*
X138293757Y-107840246D01*
X138503713Y-107873500D01*
X138503714Y-107873500D01*
X138716286Y-107873500D01*
X138716287Y-107873500D01*
X138926243Y-107840246D01*
X139128412Y-107774557D01*
X139317816Y-107678051D01*
X139372572Y-107638269D01*
X139489786Y-107553109D01*
X139489788Y-107553106D01*
X139489792Y-107553104D01*
X139640104Y-107402792D01*
X139640106Y-107402788D01*
X139640109Y-107402786D01*
X139765048Y-107230820D01*
X139765050Y-107230817D01*
X139765051Y-107230816D01*
X139769514Y-107222054D01*
X139817488Y-107171259D01*
X139885308Y-107154463D01*
X139951444Y-107176999D01*
X139990486Y-107222056D01*
X139994951Y-107230820D01*
X140119890Y-107402786D01*
X140270213Y-107553109D01*
X140442179Y-107678048D01*
X140442181Y-107678049D01*
X140442184Y-107678051D01*
X140631588Y-107774557D01*
X140833757Y-107840246D01*
X141043713Y-107873500D01*
X141043714Y-107873500D01*
X141256286Y-107873500D01*
X141256287Y-107873500D01*
X141466243Y-107840246D01*
X141668412Y-107774557D01*
X141857816Y-107678051D01*
X141912572Y-107638269D01*
X142029786Y-107553109D01*
X142029788Y-107553106D01*
X142029792Y-107553104D01*
X142180104Y-107402792D01*
X142180106Y-107402788D01*
X142180109Y-107402786D01*
X142305048Y-107230820D01*
X142305050Y-107230817D01*
X142305051Y-107230816D01*
X142401557Y-107041412D01*
X142467246Y-106839243D01*
X142500500Y-106629287D01*
X142500500Y-106416713D01*
X142467246Y-106206757D01*
X142401557Y-106004588D01*
X142305051Y-105815184D01*
X142305049Y-105815181D01*
X142305048Y-105815179D01*
X142180109Y-105643213D01*
X142029786Y-105492890D01*
X141857820Y-105367951D01*
X141668414Y-105271444D01*
X141668413Y-105271443D01*
X141668412Y-105271443D01*
X141466243Y-105205754D01*
X141466241Y-105205753D01*
X141466240Y-105205753D01*
X141304957Y-105180208D01*
X141256287Y-105172500D01*
X141043713Y-105172500D01*
X140995042Y-105180208D01*
X140833760Y-105205753D01*
X140631585Y-105271444D01*
X140442179Y-105367951D01*
X140270213Y-105492890D01*
X140119890Y-105643213D01*
X139994949Y-105815182D01*
X139990484Y-105823946D01*
X139942509Y-105874742D01*
X139874688Y-105891536D01*
X139808553Y-105868998D01*
X139769516Y-105823946D01*
X139765050Y-105815182D01*
X139640109Y-105643213D01*
X139489786Y-105492890D01*
X139317820Y-105367951D01*
X139128414Y-105271444D01*
X139128413Y-105271443D01*
X139128412Y-105271443D01*
X138926243Y-105205754D01*
X138926241Y-105205753D01*
X138926240Y-105205753D01*
X138764957Y-105180208D01*
X138716287Y-105172500D01*
X138503713Y-105172500D01*
X138455042Y-105180208D01*
X138293760Y-105205753D01*
X138091585Y-105271444D01*
X137902179Y-105367951D01*
X137730213Y-105492890D01*
X137579890Y-105643213D01*
X137454949Y-105815182D01*
X137450484Y-105823946D01*
X137402509Y-105874742D01*
X137334688Y-105891536D01*
X137268553Y-105868998D01*
X137229516Y-105823946D01*
X137225050Y-105815182D01*
X137100109Y-105643213D01*
X136949786Y-105492890D01*
X136777820Y-105367951D01*
X136588414Y-105271444D01*
X136588413Y-105271443D01*
X136588412Y-105271443D01*
X136386243Y-105205754D01*
X136386241Y-105205753D01*
X136386240Y-105205753D01*
X136224957Y-105180208D01*
X136176287Y-105172500D01*
X135963713Y-105172500D01*
X135915042Y-105180208D01*
X135753760Y-105205753D01*
X135551585Y-105271444D01*
X135362179Y-105367951D01*
X135190213Y-105492890D01*
X135039890Y-105643213D01*
X134914949Y-105815182D01*
X134910484Y-105823946D01*
X134862509Y-105874742D01*
X134794688Y-105891536D01*
X134728553Y-105868998D01*
X134689516Y-105823946D01*
X134685050Y-105815182D01*
X134560109Y-105643213D01*
X134409786Y-105492890D01*
X134237820Y-105367951D01*
X134048414Y-105271444D01*
X134048413Y-105271443D01*
X134048412Y-105271443D01*
X133846243Y-105205754D01*
X133846241Y-105205753D01*
X133846240Y-105205753D01*
X133684957Y-105180208D01*
X133636287Y-105172500D01*
X133423713Y-105172500D01*
X133375042Y-105180208D01*
X133213760Y-105205753D01*
X133011585Y-105271444D01*
X132822179Y-105367951D01*
X132650213Y-105492890D01*
X132499890Y-105643213D01*
X132374949Y-105815182D01*
X132370484Y-105823946D01*
X132322509Y-105874742D01*
X132254688Y-105891536D01*
X132188553Y-105868998D01*
X132149516Y-105823946D01*
X132145050Y-105815182D01*
X132020109Y-105643213D01*
X131869786Y-105492890D01*
X131697820Y-105367951D01*
X131508414Y-105271444D01*
X131508413Y-105271443D01*
X131508412Y-105271443D01*
X131306243Y-105205754D01*
X131306241Y-105205753D01*
X131306240Y-105205753D01*
X131144957Y-105180208D01*
X131096287Y-105172500D01*
X130883713Y-105172500D01*
X130835042Y-105180208D01*
X130673760Y-105205753D01*
X130471585Y-105271444D01*
X130282179Y-105367951D01*
X130110213Y-105492890D01*
X129959890Y-105643213D01*
X129834949Y-105815182D01*
X129830202Y-105824499D01*
X129782227Y-105875293D01*
X129714405Y-105892087D01*
X129648271Y-105869548D01*
X129609234Y-105824495D01*
X129604626Y-105815452D01*
X129565270Y-105761282D01*
X129565269Y-105761282D01*
X128932962Y-106393590D01*
X128915925Y-106330007D01*
X128850099Y-106215993D01*
X128757007Y-106122901D01*
X128642993Y-106057075D01*
X128579409Y-106040037D01*
X129211716Y-105407728D01*
X129157550Y-105368375D01*
X128968217Y-105271904D01*
X128766129Y-105206242D01*
X128556246Y-105173000D01*
X128343754Y-105173000D01*
X128133872Y-105206242D01*
X128133869Y-105206242D01*
X127931782Y-105271904D01*
X127742439Y-105368380D01*
X127688282Y-105407727D01*
X127688282Y-105407728D01*
X128320591Y-106040037D01*
X128257007Y-106057075D01*
X128142993Y-106122901D01*
X128049901Y-106215993D01*
X127984075Y-106330007D01*
X127967037Y-106393591D01*
X127334728Y-105761282D01*
X127334727Y-105761282D01*
X127295380Y-105815439D01*
X127198904Y-106004782D01*
X127133242Y-106206869D01*
X127133242Y-106206872D01*
X127100000Y-106416753D01*
X103000500Y-106416753D01*
X103000500Y-105138258D01*
X143209500Y-105138258D01*
X143209500Y-105367741D01*
X143219226Y-105441611D01*
X143239452Y-105595238D01*
X143298842Y-105816887D01*
X143386650Y-106028876D01*
X143386657Y-106028890D01*
X143501392Y-106227617D01*
X143641081Y-106409661D01*
X143641089Y-106409670D01*
X143803330Y-106571911D01*
X143803338Y-106571918D01*
X143803339Y-106571919D01*
X143853962Y-106610764D01*
X143985382Y-106711607D01*
X143985385Y-106711608D01*
X143985388Y-106711611D01*
X144184112Y-106826344D01*
X144184117Y-106826346D01*
X144184123Y-106826349D01*
X144275480Y-106864190D01*
X144396113Y-106914158D01*
X144617762Y-106973548D01*
X144845266Y-107003500D01*
X144845273Y-107003500D01*
X145074727Y-107003500D01*
X145074734Y-107003500D01*
X145302238Y-106973548D01*
X145523887Y-106914158D01*
X145735888Y-106826344D01*
X145934612Y-106711611D01*
X146116661Y-106571919D01*
X146116665Y-106571914D01*
X146116670Y-106571911D01*
X146278911Y-106409670D01*
X146278914Y-106409665D01*
X146278919Y-106409661D01*
X146418611Y-106227612D01*
X146533344Y-106028888D01*
X146621158Y-105816887D01*
X146680548Y-105595238D01*
X146710500Y-105367734D01*
X146710500Y-105138266D01*
X146680548Y-104910762D01*
X146621158Y-104689113D01*
X146549611Y-104516383D01*
X146533349Y-104477123D01*
X146533346Y-104477117D01*
X146533344Y-104477112D01*
X146418611Y-104278388D01*
X146418608Y-104278385D01*
X146418607Y-104278382D01*
X146278918Y-104096338D01*
X146278911Y-104096330D01*
X146116670Y-103934089D01*
X146116661Y-103934081D01*
X146030880Y-103868258D01*
X153289500Y-103868258D01*
X153289500Y-104097741D01*
X153299803Y-104175993D01*
X153319452Y-104325238D01*
X153360145Y-104477109D01*
X153378842Y-104546887D01*
X153466650Y-104758876D01*
X153466657Y-104758890D01*
X153474595Y-104772639D01*
X153554338Y-104910759D01*
X153581392Y-104957617D01*
X153721081Y-105139661D01*
X153721089Y-105139670D01*
X153883330Y-105301911D01*
X153883338Y-105301918D01*
X154065382Y-105441607D01*
X154065385Y-105441608D01*
X154065388Y-105441611D01*
X154264112Y-105556344D01*
X154264117Y-105556346D01*
X154264123Y-105556349D01*
X154355480Y-105594190D01*
X154476113Y-105644158D01*
X154697762Y-105703548D01*
X154925266Y-105733500D01*
X154925273Y-105733500D01*
X155154727Y-105733500D01*
X155154734Y-105733500D01*
X155382238Y-105703548D01*
X155603887Y-105644158D01*
X155815888Y-105556344D01*
X156014612Y-105441611D01*
X156196661Y-105301919D01*
X156196665Y-105301914D01*
X156196670Y-105301911D01*
X156358911Y-105139670D01*
X156358914Y-105139665D01*
X156358919Y-105139661D01*
X156498611Y-104957612D01*
X156613344Y-104758888D01*
X156701158Y-104546887D01*
X156760548Y-104325238D01*
X156790500Y-104097734D01*
X156790500Y-103873638D01*
X157460500Y-103873638D01*
X157460500Y-104092361D01*
X157494714Y-104308376D01*
X157562297Y-104516380D01*
X157562298Y-104516383D01*
X157629782Y-104648825D01*
X157650309Y-104689112D01*
X157661595Y-104711260D01*
X157790142Y-104888193D01*
X157944806Y-105042857D01*
X158059508Y-105126191D01*
X158121743Y-105171407D01*
X158249132Y-105236315D01*
X158316616Y-105270701D01*
X158316619Y-105270702D01*
X158412673Y-105301911D01*
X158524625Y-105338286D01*
X158624672Y-105354132D01*
X158740639Y-105372500D01*
X158740644Y-105372500D01*
X158959361Y-105372500D01*
X159064082Y-105355912D01*
X159175375Y-105338286D01*
X159375879Y-105273139D01*
X159383380Y-105270702D01*
X159383383Y-105270701D01*
X159384294Y-105270237D01*
X159578257Y-105171407D01*
X159677601Y-105099229D01*
X159755193Y-105042857D01*
X159755195Y-105042854D01*
X159755199Y-105042852D01*
X159909852Y-104888199D01*
X160019683Y-104737028D01*
X160075011Y-104694364D01*
X160144624Y-104688385D01*
X160206420Y-104720990D01*
X160220313Y-104737023D01*
X160330143Y-104888192D01*
X160330148Y-104888199D01*
X160484806Y-105042857D01*
X160599508Y-105126191D01*
X160661743Y-105171407D01*
X160789132Y-105236315D01*
X160856616Y-105270701D01*
X160856619Y-105270702D01*
X160952673Y-105301911D01*
X161064625Y-105338286D01*
X161164672Y-105354132D01*
X161280639Y-105372500D01*
X161280644Y-105372500D01*
X161499361Y-105372500D01*
X161604082Y-105355912D01*
X161715375Y-105338286D01*
X161915879Y-105273139D01*
X161923380Y-105270702D01*
X161923383Y-105270701D01*
X161924294Y-105270237D01*
X162118257Y-105171407D01*
X162217601Y-105099229D01*
X162295193Y-105042857D01*
X162295195Y-105042854D01*
X162295199Y-105042852D01*
X162449852Y-104888199D01*
X162559991Y-104736603D01*
X162615320Y-104693939D01*
X162684933Y-104687960D01*
X162746729Y-104720565D01*
X162760628Y-104736606D01*
X162786806Y-104772638D01*
X162786807Y-104772638D01*
X163447037Y-104112408D01*
X163464075Y-104175993D01*
X163529901Y-104290007D01*
X163622993Y-104383099D01*
X163737007Y-104448925D01*
X163800590Y-104465962D01*
X163140360Y-105126191D01*
X163202008Y-105170980D01*
X163396808Y-105270237D01*
X163396811Y-105270238D01*
X163604740Y-105337797D01*
X163820684Y-105372000D01*
X164039316Y-105372000D01*
X164255259Y-105337797D01*
X164463188Y-105270238D01*
X164463191Y-105270237D01*
X164657995Y-105170978D01*
X164719638Y-105126191D01*
X164719639Y-105126191D01*
X164059409Y-104465962D01*
X164122993Y-104448925D01*
X164237007Y-104383099D01*
X164330099Y-104290007D01*
X164395925Y-104175993D01*
X164412962Y-104112410D01*
X165073191Y-104772639D01*
X165073191Y-104772638D01*
X165099372Y-104736605D01*
X165154702Y-104693939D01*
X165224315Y-104687960D01*
X165286110Y-104720565D01*
X165300008Y-104736605D01*
X165410142Y-104888192D01*
X165410146Y-104888197D01*
X165564806Y-105042857D01*
X165679508Y-105126191D01*
X165741743Y-105171407D01*
X165869132Y-105236315D01*
X165936616Y-105270701D01*
X165936619Y-105270702D01*
X166032673Y-105301911D01*
X166144625Y-105338286D01*
X166244672Y-105354132D01*
X166360639Y-105372500D01*
X166360644Y-105372500D01*
X166579361Y-105372500D01*
X166684082Y-105355912D01*
X166795375Y-105338286D01*
X166995879Y-105273139D01*
X167003380Y-105270702D01*
X167003383Y-105270701D01*
X167004294Y-105270237D01*
X167198257Y-105171407D01*
X167297601Y-105099229D01*
X167375193Y-105042857D01*
X167375195Y-105042854D01*
X167375199Y-105042852D01*
X167529852Y-104888199D01*
X167639683Y-104737028D01*
X167695011Y-104694364D01*
X167764624Y-104688385D01*
X167826420Y-104720990D01*
X167840313Y-104737023D01*
X167950143Y-104888192D01*
X167950148Y-104888199D01*
X168104806Y-105042857D01*
X168219508Y-105126191D01*
X168281743Y-105171407D01*
X168409132Y-105236315D01*
X168476616Y-105270701D01*
X168476619Y-105270702D01*
X168572673Y-105301911D01*
X168684625Y-105338286D01*
X168784672Y-105354132D01*
X168900639Y-105372500D01*
X168900644Y-105372500D01*
X169119361Y-105372500D01*
X169224082Y-105355912D01*
X169335375Y-105338286D01*
X169535879Y-105273139D01*
X169543380Y-105270702D01*
X169543383Y-105270701D01*
X169544294Y-105270237D01*
X169738257Y-105171407D01*
X169837601Y-105099229D01*
X169915193Y-105042857D01*
X169915195Y-105042854D01*
X169915199Y-105042852D01*
X170069852Y-104888199D01*
X170179683Y-104737028D01*
X170235011Y-104694364D01*
X170304624Y-104688385D01*
X170366420Y-104720990D01*
X170380313Y-104737023D01*
X170490143Y-104888192D01*
X170490148Y-104888199D01*
X170644806Y-105042857D01*
X170759508Y-105126191D01*
X170821743Y-105171407D01*
X170949132Y-105236315D01*
X171016616Y-105270701D01*
X171016619Y-105270702D01*
X171112673Y-105301911D01*
X171224625Y-105338286D01*
X171324672Y-105354132D01*
X171440639Y-105372500D01*
X171440644Y-105372500D01*
X171659361Y-105372500D01*
X171764082Y-105355912D01*
X171875375Y-105338286D01*
X172075879Y-105273139D01*
X172083380Y-105270702D01*
X172083383Y-105270701D01*
X172084294Y-105270237D01*
X172278257Y-105171407D01*
X172377601Y-105099229D01*
X172455193Y-105042857D01*
X172455195Y-105042854D01*
X172455199Y-105042852D01*
X172609852Y-104888199D01*
X172609854Y-104888195D01*
X172609857Y-104888193D01*
X172666229Y-104810601D01*
X172738407Y-104711257D01*
X172837701Y-104516383D01*
X172905286Y-104308375D01*
X172926253Y-104175993D01*
X172939500Y-104092361D01*
X172939500Y-103873638D01*
X172938648Y-103868258D01*
X173609500Y-103868258D01*
X173609500Y-104097741D01*
X173619803Y-104175993D01*
X173639452Y-104325238D01*
X173680145Y-104477109D01*
X173698842Y-104546887D01*
X173786650Y-104758876D01*
X173786657Y-104758890D01*
X173794595Y-104772639D01*
X173874338Y-104910759D01*
X173901392Y-104957617D01*
X174041081Y-105139661D01*
X174041089Y-105139670D01*
X174203330Y-105301911D01*
X174203338Y-105301918D01*
X174385382Y-105441607D01*
X174385385Y-105441608D01*
X174385388Y-105441611D01*
X174584112Y-105556344D01*
X174584117Y-105556346D01*
X174584123Y-105556349D01*
X174675480Y-105594190D01*
X174796113Y-105644158D01*
X175017762Y-105703548D01*
X175245266Y-105733500D01*
X175245273Y-105733500D01*
X175474727Y-105733500D01*
X175474734Y-105733500D01*
X175702238Y-105703548D01*
X175923887Y-105644158D01*
X176135888Y-105556344D01*
X176334612Y-105441611D01*
X176516661Y-105301919D01*
X176516665Y-105301914D01*
X176516670Y-105301911D01*
X176678911Y-105139670D01*
X176678914Y-105139665D01*
X176678919Y-105139661D01*
X176818611Y-104957612D01*
X176933344Y-104758888D01*
X177021158Y-104546887D01*
X177080548Y-104325238D01*
X177110500Y-104097734D01*
X177110500Y-103868266D01*
X177080548Y-103640762D01*
X177021158Y-103419113D01*
X176962547Y-103277614D01*
X176933349Y-103207123D01*
X176933346Y-103207117D01*
X176933344Y-103207112D01*
X176818611Y-103008388D01*
X176818608Y-103008385D01*
X176818607Y-103008382D01*
X176689253Y-102839807D01*
X176678919Y-102826339D01*
X176678918Y-102826338D01*
X176678911Y-102826330D01*
X176516670Y-102664089D01*
X176516661Y-102664081D01*
X176334617Y-102524392D01*
X176135890Y-102409657D01*
X176135876Y-102409650D01*
X175923887Y-102321842D01*
X175702238Y-102262452D01*
X175664215Y-102257446D01*
X175474741Y-102232500D01*
X175474734Y-102232500D01*
X175245266Y-102232500D01*
X175245258Y-102232500D01*
X175028715Y-102261009D01*
X175017762Y-102262452D01*
X174924076Y-102287554D01*
X174796112Y-102321842D01*
X174584123Y-102409650D01*
X174584109Y-102409657D01*
X174385382Y-102524392D01*
X174203338Y-102664081D01*
X174041081Y-102826338D01*
X173901392Y-103008382D01*
X173786657Y-103207109D01*
X173786650Y-103207123D01*
X173698842Y-103419112D01*
X173639453Y-103640759D01*
X173639451Y-103640770D01*
X173609500Y-103868258D01*
X172938648Y-103868258D01*
X172919595Y-103747971D01*
X172905286Y-103657625D01*
X172837701Y-103449617D01*
X172837701Y-103449616D01*
X172803315Y-103382132D01*
X172738407Y-103254743D01*
X172719681Y-103228969D01*
X172609857Y-103077806D01*
X172455193Y-102923142D01*
X172278260Y-102794595D01*
X172278259Y-102794594D01*
X172278257Y-102794593D01*
X172215825Y-102762782D01*
X172083383Y-102695298D01*
X172083380Y-102695297D01*
X171875376Y-102627714D01*
X171659361Y-102593500D01*
X171659356Y-102593500D01*
X171440644Y-102593500D01*
X171440639Y-102593500D01*
X171224623Y-102627714D01*
X171016619Y-102695297D01*
X171016616Y-102695298D01*
X170821739Y-102794595D01*
X170644806Y-102923142D01*
X170490142Y-103077806D01*
X170380318Y-103228969D01*
X170324989Y-103271635D01*
X170255375Y-103277614D01*
X170193580Y-103245009D01*
X170179682Y-103228969D01*
X170069857Y-103077806D01*
X169915193Y-102923142D01*
X169738260Y-102794595D01*
X169738259Y-102794594D01*
X169738257Y-102794593D01*
X169675825Y-102762782D01*
X169543383Y-102695298D01*
X169543380Y-102695297D01*
X169335376Y-102627714D01*
X169119361Y-102593500D01*
X169119356Y-102593500D01*
X168900644Y-102593500D01*
X168900639Y-102593500D01*
X168684623Y-102627714D01*
X168476619Y-102695297D01*
X168476616Y-102695298D01*
X168281739Y-102794595D01*
X168104806Y-102923142D01*
X167950142Y-103077806D01*
X167840318Y-103228969D01*
X167784989Y-103271635D01*
X167715375Y-103277614D01*
X167653580Y-103245009D01*
X167639682Y-103228969D01*
X167529857Y-103077806D01*
X167375193Y-102923142D01*
X167198260Y-102794595D01*
X167198259Y-102794594D01*
X167198257Y-102794593D01*
X167135825Y-102762782D01*
X167003383Y-102695298D01*
X167003380Y-102695297D01*
X166795376Y-102627714D01*
X166579361Y-102593500D01*
X166579356Y-102593500D01*
X166360644Y-102593500D01*
X166360639Y-102593500D01*
X166144623Y-102627714D01*
X165936619Y-102695297D01*
X165936616Y-102695298D01*
X165741739Y-102794595D01*
X165564806Y-102923142D01*
X165410146Y-103077802D01*
X165410142Y-103077807D01*
X165300008Y-103229394D01*
X165244678Y-103272060D01*
X165175065Y-103278039D01*
X165113270Y-103245433D01*
X165099372Y-103229394D01*
X165073192Y-103193360D01*
X165073191Y-103193360D01*
X164412962Y-103853589D01*
X164395925Y-103790007D01*
X164330099Y-103675993D01*
X164237007Y-103582901D01*
X164122993Y-103517075D01*
X164059407Y-103500037D01*
X164719638Y-102839807D01*
X164719638Y-102839806D01*
X164657995Y-102795021D01*
X164657993Y-102795020D01*
X164463191Y-102695762D01*
X164463188Y-102695761D01*
X164255259Y-102628202D01*
X164039316Y-102594000D01*
X163820684Y-102594000D01*
X163604740Y-102628202D01*
X163396811Y-102695761D01*
X163396808Y-102695762D01*
X163202001Y-102795023D01*
X163140360Y-102839806D01*
X163140360Y-102839807D01*
X163800590Y-103500037D01*
X163737007Y-103517075D01*
X163622993Y-103582901D01*
X163529901Y-103675993D01*
X163464075Y-103790007D01*
X163447037Y-103853590D01*
X162786807Y-103193360D01*
X162786805Y-103193360D01*
X162760626Y-103229394D01*
X162705297Y-103272060D01*
X162635683Y-103278039D01*
X162573888Y-103245434D01*
X162559995Y-103229401D01*
X162449852Y-103077801D01*
X162295199Y-102923148D01*
X162295193Y-102923142D01*
X162118260Y-102794595D01*
X162118259Y-102794594D01*
X162118257Y-102794593D01*
X162055825Y-102762782D01*
X161923383Y-102695298D01*
X161923380Y-102695297D01*
X161715376Y-102627714D01*
X161499361Y-102593500D01*
X161499356Y-102593500D01*
X161280644Y-102593500D01*
X161280639Y-102593500D01*
X161064623Y-102627714D01*
X160856619Y-102695297D01*
X160856616Y-102695298D01*
X160661739Y-102794595D01*
X160484806Y-102923142D01*
X160330142Y-103077806D01*
X160220318Y-103228969D01*
X160164989Y-103271635D01*
X160095375Y-103277614D01*
X160033580Y-103245009D01*
X160019682Y-103228969D01*
X159909857Y-103077806D01*
X159755193Y-102923142D01*
X159578260Y-102794595D01*
X159578259Y-102794594D01*
X159578257Y-102794593D01*
X159515825Y-102762782D01*
X159383383Y-102695298D01*
X159383380Y-102695297D01*
X159175376Y-102627714D01*
X158959361Y-102593500D01*
X158959356Y-102593500D01*
X158740644Y-102593500D01*
X158740639Y-102593500D01*
X158524623Y-102627714D01*
X158316619Y-102695297D01*
X158316616Y-102695298D01*
X158121739Y-102794595D01*
X157944806Y-102923142D01*
X157790142Y-103077806D01*
X157661595Y-103254739D01*
X157562298Y-103449616D01*
X157562297Y-103449619D01*
X157494714Y-103657623D01*
X157460500Y-103873638D01*
X156790500Y-103873638D01*
X156790500Y-103868266D01*
X156760548Y-103640762D01*
X156701158Y-103419113D01*
X156642547Y-103277614D01*
X156613349Y-103207123D01*
X156613346Y-103207117D01*
X156613344Y-103207112D01*
X156498611Y-103008388D01*
X156498608Y-103008385D01*
X156498607Y-103008382D01*
X156369253Y-102839807D01*
X156358919Y-102826339D01*
X156358918Y-102826338D01*
X156358911Y-102826330D01*
X156196670Y-102664089D01*
X156196661Y-102664081D01*
X156014617Y-102524392D01*
X155815890Y-102409657D01*
X155815876Y-102409650D01*
X155603887Y-102321842D01*
X155382238Y-102262452D01*
X155344215Y-102257446D01*
X155154741Y-102232500D01*
X155154734Y-102232500D01*
X154925266Y-102232500D01*
X154925258Y-102232500D01*
X154708715Y-102261009D01*
X154697762Y-102262452D01*
X154604076Y-102287554D01*
X154476112Y-102321842D01*
X154264123Y-102409650D01*
X154264109Y-102409657D01*
X154065382Y-102524392D01*
X153883338Y-102664081D01*
X153721081Y-102826338D01*
X153581392Y-103008382D01*
X153466657Y-103207109D01*
X153466650Y-103207123D01*
X153378842Y-103419112D01*
X153319453Y-103640759D01*
X153319451Y-103640770D01*
X153289500Y-103868258D01*
X146030880Y-103868258D01*
X145934617Y-103794392D01*
X145735890Y-103679657D01*
X145735876Y-103679650D01*
X145523887Y-103591842D01*
X145490518Y-103582901D01*
X145302238Y-103532452D01*
X145264215Y-103527446D01*
X145074741Y-103502500D01*
X145074734Y-103502500D01*
X144845266Y-103502500D01*
X144845258Y-103502500D01*
X144628715Y-103531009D01*
X144617762Y-103532452D01*
X144524076Y-103557554D01*
X144396112Y-103591842D01*
X144184123Y-103679650D01*
X144184109Y-103679657D01*
X143985382Y-103794392D01*
X143803338Y-103934081D01*
X143641081Y-104096338D01*
X143501392Y-104278382D01*
X143386657Y-104477109D01*
X143386650Y-104477123D01*
X143298842Y-104689112D01*
X143239453Y-104910759D01*
X143239451Y-104910770D01*
X143209500Y-105138258D01*
X103000500Y-105138258D01*
X103000500Y-84003051D01*
X103000649Y-83996966D01*
X103009192Y-83823065D01*
X103349500Y-83823065D01*
X103349500Y-84176934D01*
X103389116Y-84528545D01*
X103389119Y-84528559D01*
X103467859Y-84873543D01*
X103467860Y-84873545D01*
X103584731Y-85207545D01*
X103738262Y-85526355D01*
X103738264Y-85526358D01*
X103926527Y-85825976D01*
X104007751Y-85927828D01*
X104139984Y-86093644D01*
X104147153Y-86102633D01*
X104397367Y-86352847D01*
X104674024Y-86573473D01*
X104973642Y-86761736D01*
X105292456Y-86915269D01*
X105626456Y-87032140D01*
X105971440Y-87110881D01*
X105971449Y-87110882D01*
X105971454Y-87110883D01*
X106205861Y-87137293D01*
X106323066Y-87150499D01*
X106323069Y-87150500D01*
X106323072Y-87150500D01*
X106676931Y-87150500D01*
X106676932Y-87150499D01*
X106856635Y-87130252D01*
X107028545Y-87110883D01*
X107028548Y-87110882D01*
X107028560Y-87110881D01*
X107373544Y-87032140D01*
X107707544Y-86915269D01*
X108026358Y-86761736D01*
X108325976Y-86573473D01*
X108602633Y-86352847D01*
X108852847Y-86102633D01*
X109073473Y-85825976D01*
X109261736Y-85526358D01*
X109415269Y-85207544D01*
X109532140Y-84873544D01*
X109544759Y-84818258D01*
X122889500Y-84818258D01*
X122889500Y-85047741D01*
X122910540Y-85207544D01*
X122919452Y-85275238D01*
X122919453Y-85275240D01*
X122978842Y-85496887D01*
X123066650Y-85708876D01*
X123066656Y-85708888D01*
X123154338Y-85860759D01*
X123181392Y-85907617D01*
X123321081Y-86089661D01*
X123321089Y-86089670D01*
X123483330Y-86251911D01*
X123483338Y-86251918D01*
X123665382Y-86391607D01*
X123665385Y-86391608D01*
X123665388Y-86391611D01*
X123864112Y-86506344D01*
X123864117Y-86506346D01*
X123864123Y-86506349D01*
X123955480Y-86544190D01*
X124076113Y-86594158D01*
X124297762Y-86653548D01*
X124525266Y-86683500D01*
X124525273Y-86683500D01*
X124754727Y-86683500D01*
X124754734Y-86683500D01*
X124982238Y-86653548D01*
X125203887Y-86594158D01*
X125415888Y-86506344D01*
X125614612Y-86391611D01*
X125796661Y-86251919D01*
X125796665Y-86251914D01*
X125796670Y-86251911D01*
X125958911Y-86089670D01*
X125958914Y-86089665D01*
X125958919Y-86089661D01*
X126098611Y-85907612D01*
X126213344Y-85708888D01*
X126301158Y-85496887D01*
X126360548Y-85275238D01*
X126390500Y-85047734D01*
X126390500Y-84818266D01*
X126390499Y-84818258D01*
X143209500Y-84818258D01*
X143209500Y-85047741D01*
X143230540Y-85207544D01*
X143239452Y-85275238D01*
X143239453Y-85275240D01*
X143298842Y-85496887D01*
X143386650Y-85708876D01*
X143386656Y-85708888D01*
X143474338Y-85860759D01*
X143501392Y-85907617D01*
X143641081Y-86089661D01*
X143641089Y-86089670D01*
X143803330Y-86251911D01*
X143803338Y-86251918D01*
X143985382Y-86391607D01*
X143985385Y-86391608D01*
X143985388Y-86391611D01*
X144184112Y-86506344D01*
X144184117Y-86506346D01*
X144184123Y-86506349D01*
X144275480Y-86544190D01*
X144396113Y-86594158D01*
X144617762Y-86653548D01*
X144845266Y-86683500D01*
X144845273Y-86683500D01*
X145074727Y-86683500D01*
X145074734Y-86683500D01*
X145302238Y-86653548D01*
X145523887Y-86594158D01*
X145735888Y-86506344D01*
X145934612Y-86391611D01*
X146116661Y-86251919D01*
X146116665Y-86251914D01*
X146116670Y-86251911D01*
X146278911Y-86089670D01*
X146278914Y-86089665D01*
X146278919Y-86089661D01*
X146279996Y-86088258D01*
X153289500Y-86088258D01*
X153289500Y-86317741D01*
X153299226Y-86391611D01*
X153319452Y-86545238D01*
X153332560Y-86594157D01*
X153378842Y-86766887D01*
X153466650Y-86978876D01*
X153466657Y-86978890D01*
X153581392Y-87177617D01*
X153721081Y-87359661D01*
X153721089Y-87359670D01*
X153883330Y-87521911D01*
X153883338Y-87521918D01*
X154065382Y-87661607D01*
X154065385Y-87661608D01*
X154065388Y-87661611D01*
X154264112Y-87776344D01*
X154264117Y-87776346D01*
X154264123Y-87776349D01*
X154355480Y-87814190D01*
X154476113Y-87864158D01*
X154697762Y-87923548D01*
X154925266Y-87953500D01*
X154925273Y-87953500D01*
X155154727Y-87953500D01*
X155154734Y-87953500D01*
X155382238Y-87923548D01*
X155603887Y-87864158D01*
X155815888Y-87776344D01*
X156014612Y-87661611D01*
X156196661Y-87521919D01*
X156196665Y-87521914D01*
X156196670Y-87521911D01*
X156358911Y-87359670D01*
X156358914Y-87359665D01*
X156358919Y-87359661D01*
X156498611Y-87177612D01*
X156613344Y-86978888D01*
X156701158Y-86766887D01*
X156760548Y-86545238D01*
X156790500Y-86317734D01*
X156790500Y-86093638D01*
X157460500Y-86093638D01*
X157460500Y-86312361D01*
X157494714Y-86528376D01*
X157562297Y-86736380D01*
X157562298Y-86736383D01*
X157661595Y-86931260D01*
X157790142Y-87108193D01*
X157944806Y-87262857D01*
X158078048Y-87359661D01*
X158121743Y-87391407D01*
X158249132Y-87456315D01*
X158316616Y-87490701D01*
X158316619Y-87490702D01*
X158412673Y-87521911D01*
X158524625Y-87558286D01*
X158624672Y-87574132D01*
X158740639Y-87592500D01*
X158740644Y-87592500D01*
X158959361Y-87592500D01*
X159064082Y-87575912D01*
X159175375Y-87558286D01*
X159383383Y-87490701D01*
X159578257Y-87391407D01*
X159677601Y-87319229D01*
X159755193Y-87262857D01*
X159755195Y-87262854D01*
X159755199Y-87262852D01*
X159909852Y-87108199D01*
X160019683Y-86957028D01*
X160075011Y-86914364D01*
X160144624Y-86908385D01*
X160206420Y-86940990D01*
X160220313Y-86957023D01*
X160330144Y-87108193D01*
X160330148Y-87108199D01*
X160484806Y-87262857D01*
X160618048Y-87359661D01*
X160661743Y-87391407D01*
X160789132Y-87456315D01*
X160856616Y-87490701D01*
X160856619Y-87490702D01*
X160952673Y-87521911D01*
X161064625Y-87558286D01*
X161164672Y-87574132D01*
X161280639Y-87592500D01*
X161280644Y-87592500D01*
X161499361Y-87592500D01*
X161604082Y-87575912D01*
X161715375Y-87558286D01*
X161923383Y-87490701D01*
X162118257Y-87391407D01*
X162217601Y-87319229D01*
X162295193Y-87262857D01*
X162295195Y-87262854D01*
X162295199Y-87262852D01*
X162449852Y-87108199D01*
X162559683Y-86957028D01*
X162615011Y-86914364D01*
X162684624Y-86908385D01*
X162746420Y-86940990D01*
X162760313Y-86957023D01*
X162870144Y-87108193D01*
X162870148Y-87108199D01*
X163024806Y-87262857D01*
X163158048Y-87359661D01*
X163201743Y-87391407D01*
X163329132Y-87456315D01*
X163396616Y-87490701D01*
X163396619Y-87490702D01*
X163492673Y-87521911D01*
X163604625Y-87558286D01*
X163704672Y-87574132D01*
X163820639Y-87592500D01*
X163820644Y-87592500D01*
X164039361Y-87592500D01*
X164144082Y-87575912D01*
X164255375Y-87558286D01*
X164463383Y-87490701D01*
X164658257Y-87391407D01*
X164757601Y-87319229D01*
X164835193Y-87262857D01*
X164835195Y-87262854D01*
X164835199Y-87262852D01*
X164989852Y-87108199D01*
X165099683Y-86957028D01*
X165155011Y-86914364D01*
X165224624Y-86908385D01*
X165286420Y-86940990D01*
X165300313Y-86957023D01*
X165410144Y-87108193D01*
X165410148Y-87108199D01*
X165564806Y-87262857D01*
X165698048Y-87359661D01*
X165741743Y-87391407D01*
X165869132Y-87456315D01*
X165936616Y-87490701D01*
X165936619Y-87490702D01*
X166032673Y-87521911D01*
X166144625Y-87558286D01*
X166244672Y-87574132D01*
X166360639Y-87592500D01*
X166360644Y-87592500D01*
X166579361Y-87592500D01*
X166684082Y-87575912D01*
X166795375Y-87558286D01*
X167003383Y-87490701D01*
X167198257Y-87391407D01*
X167297601Y-87319229D01*
X167375193Y-87262857D01*
X167375195Y-87262854D01*
X167375199Y-87262852D01*
X167529852Y-87108199D01*
X167639683Y-86957028D01*
X167695011Y-86914364D01*
X167764624Y-86908385D01*
X167826420Y-86940990D01*
X167840313Y-86957023D01*
X167950144Y-87108193D01*
X167950148Y-87108199D01*
X168104806Y-87262857D01*
X168238048Y-87359661D01*
X168281743Y-87391407D01*
X168409132Y-87456315D01*
X168476616Y-87490701D01*
X168476619Y-87490702D01*
X168572673Y-87521911D01*
X168684625Y-87558286D01*
X168784672Y-87574132D01*
X168900639Y-87592500D01*
X168900644Y-87592500D01*
X169119361Y-87592500D01*
X169224082Y-87575912D01*
X169335375Y-87558286D01*
X169543383Y-87490701D01*
X169738257Y-87391407D01*
X169837601Y-87319229D01*
X169915193Y-87262857D01*
X169915195Y-87262854D01*
X169915199Y-87262852D01*
X170069852Y-87108199D01*
X170179683Y-86957028D01*
X170235011Y-86914364D01*
X170304624Y-86908385D01*
X170366420Y-86940990D01*
X170380313Y-86957023D01*
X170490144Y-87108193D01*
X170490148Y-87108199D01*
X170644806Y-87262857D01*
X170778048Y-87359661D01*
X170821743Y-87391407D01*
X170949132Y-87456315D01*
X171016616Y-87490701D01*
X171016619Y-87490702D01*
X171112673Y-87521911D01*
X171224625Y-87558286D01*
X171324672Y-87574132D01*
X171440639Y-87592500D01*
X171440644Y-87592500D01*
X171659361Y-87592500D01*
X171764082Y-87575912D01*
X171875375Y-87558286D01*
X172083383Y-87490701D01*
X172278257Y-87391407D01*
X172377601Y-87319229D01*
X172455193Y-87262857D01*
X172455195Y-87262854D01*
X172455199Y-87262852D01*
X172609852Y-87108199D01*
X172609854Y-87108195D01*
X172609857Y-87108193D01*
X172666229Y-87030601D01*
X172738407Y-86931257D01*
X172837701Y-86736383D01*
X172905286Y-86528375D01*
X172933087Y-86352847D01*
X172939500Y-86312361D01*
X172939500Y-86093638D01*
X172938648Y-86088258D01*
X173609500Y-86088258D01*
X173609500Y-86317741D01*
X173619226Y-86391611D01*
X173639452Y-86545238D01*
X173652560Y-86594157D01*
X173698842Y-86766887D01*
X173786650Y-86978876D01*
X173786657Y-86978890D01*
X173901392Y-87177617D01*
X174041081Y-87359661D01*
X174041089Y-87359670D01*
X174203330Y-87521911D01*
X174203338Y-87521918D01*
X174385382Y-87661607D01*
X174385385Y-87661608D01*
X174385388Y-87661611D01*
X174584112Y-87776344D01*
X174584117Y-87776346D01*
X174584123Y-87776349D01*
X174675480Y-87814190D01*
X174796113Y-87864158D01*
X175017762Y-87923548D01*
X175245266Y-87953500D01*
X175245273Y-87953500D01*
X175474727Y-87953500D01*
X175474734Y-87953500D01*
X175702238Y-87923548D01*
X175923887Y-87864158D01*
X176135888Y-87776344D01*
X176334612Y-87661611D01*
X176516661Y-87521919D01*
X176516665Y-87521914D01*
X176516670Y-87521911D01*
X176678911Y-87359670D01*
X176678914Y-87359665D01*
X176678919Y-87359661D01*
X176818611Y-87177612D01*
X176933344Y-86978888D01*
X177021158Y-86766887D01*
X177080548Y-86545238D01*
X177110500Y-86317734D01*
X177110500Y-86088266D01*
X177080548Y-85860762D01*
X177021158Y-85639113D01*
X176962246Y-85496887D01*
X176933349Y-85427123D01*
X176933346Y-85427117D01*
X176933344Y-85427112D01*
X176818611Y-85228388D01*
X176818608Y-85228385D01*
X176818607Y-85228382D01*
X176678918Y-85046338D01*
X176678911Y-85046330D01*
X176516670Y-84884089D01*
X176516661Y-84884081D01*
X176334617Y-84744392D01*
X176135890Y-84629657D01*
X176135876Y-84629650D01*
X175923887Y-84541842D01*
X175874317Y-84528560D01*
X175702238Y-84482452D01*
X175664215Y-84477446D01*
X175474741Y-84452500D01*
X175474734Y-84452500D01*
X175245266Y-84452500D01*
X175245258Y-84452500D01*
X175028715Y-84481009D01*
X175017762Y-84482452D01*
X174924076Y-84507554D01*
X174796112Y-84541842D01*
X174584123Y-84629650D01*
X174584109Y-84629657D01*
X174385382Y-84744392D01*
X174203338Y-84884081D01*
X174041081Y-85046338D01*
X173901392Y-85228382D01*
X173786657Y-85427109D01*
X173786650Y-85427123D01*
X173698842Y-85639112D01*
X173639453Y-85860759D01*
X173639451Y-85860770D01*
X173609500Y-86088258D01*
X172938648Y-86088258D01*
X172910035Y-85907612D01*
X172905286Y-85877625D01*
X172871493Y-85773621D01*
X172837702Y-85669619D01*
X172837701Y-85669616D01*
X172764706Y-85526358D01*
X172738407Y-85474743D01*
X172719681Y-85448969D01*
X172609857Y-85297806D01*
X172455193Y-85143142D01*
X172278260Y-85014595D01*
X172278259Y-85014594D01*
X172278257Y-85014593D01*
X172215825Y-84982782D01*
X172083383Y-84915298D01*
X172083380Y-84915297D01*
X171875376Y-84847714D01*
X171659361Y-84813500D01*
X171659356Y-84813500D01*
X171440644Y-84813500D01*
X171440639Y-84813500D01*
X171224623Y-84847714D01*
X171016619Y-84915297D01*
X171016616Y-84915298D01*
X170821739Y-85014595D01*
X170644806Y-85143142D01*
X170490142Y-85297806D01*
X170380318Y-85448969D01*
X170324989Y-85491635D01*
X170255375Y-85497614D01*
X170193580Y-85465009D01*
X170179682Y-85448969D01*
X170069857Y-85297806D01*
X169915193Y-85143142D01*
X169738260Y-85014595D01*
X169738259Y-85014594D01*
X169738257Y-85014593D01*
X169675825Y-84982782D01*
X169543383Y-84915298D01*
X169543380Y-84915297D01*
X169335376Y-84847714D01*
X169119361Y-84813500D01*
X169119356Y-84813500D01*
X168900644Y-84813500D01*
X168900639Y-84813500D01*
X168684623Y-84847714D01*
X168476619Y-84915297D01*
X168476616Y-84915298D01*
X168281739Y-85014595D01*
X168104806Y-85143142D01*
X167950142Y-85297806D01*
X167840318Y-85448969D01*
X167784989Y-85491635D01*
X167715375Y-85497614D01*
X167653580Y-85465009D01*
X167639682Y-85448969D01*
X167529857Y-85297806D01*
X167375193Y-85143142D01*
X167198260Y-85014595D01*
X167198259Y-85014594D01*
X167198257Y-85014593D01*
X167135825Y-84982782D01*
X167003383Y-84915298D01*
X167003380Y-84915297D01*
X166795376Y-84847714D01*
X166579361Y-84813500D01*
X166579356Y-84813500D01*
X166360644Y-84813500D01*
X166360639Y-84813500D01*
X166144623Y-84847714D01*
X165936619Y-84915297D01*
X165936616Y-84915298D01*
X165741739Y-85014595D01*
X165564806Y-85143142D01*
X165410142Y-85297806D01*
X165300318Y-85448969D01*
X165244989Y-85491635D01*
X165175375Y-85497614D01*
X165113580Y-85465009D01*
X165099682Y-85448969D01*
X164989857Y-85297806D01*
X164835193Y-85143142D01*
X164658260Y-85014595D01*
X164658259Y-85014594D01*
X164658257Y-85014593D01*
X164595825Y-84982782D01*
X164463383Y-84915298D01*
X164463380Y-84915297D01*
X164255376Y-84847714D01*
X164039361Y-84813500D01*
X164039356Y-84813500D01*
X163820644Y-84813500D01*
X163820639Y-84813500D01*
X163604623Y-84847714D01*
X163396619Y-84915297D01*
X163396616Y-84915298D01*
X163201739Y-85014595D01*
X163024806Y-85143142D01*
X162870142Y-85297806D01*
X162760318Y-85448969D01*
X162704989Y-85491635D01*
X162635375Y-85497614D01*
X162573580Y-85465009D01*
X162559682Y-85448969D01*
X162449857Y-85297806D01*
X162295193Y-85143142D01*
X162118260Y-85014595D01*
X162118259Y-85014594D01*
X162118257Y-85014593D01*
X162055825Y-84982782D01*
X161923383Y-84915298D01*
X161923380Y-84915297D01*
X161715376Y-84847714D01*
X161499361Y-84813500D01*
X161499356Y-84813500D01*
X161280644Y-84813500D01*
X161280639Y-84813500D01*
X161064623Y-84847714D01*
X160856619Y-84915297D01*
X160856616Y-84915298D01*
X160661739Y-85014595D01*
X160484806Y-85143142D01*
X160330142Y-85297806D01*
X160220318Y-85448969D01*
X160164989Y-85491635D01*
X160095375Y-85497614D01*
X160033580Y-85465009D01*
X160019682Y-85448969D01*
X159909857Y-85297806D01*
X159755193Y-85143142D01*
X159578260Y-85014595D01*
X159578259Y-85014594D01*
X159578257Y-85014593D01*
X159515825Y-84982782D01*
X159383383Y-84915298D01*
X159383380Y-84915297D01*
X159175376Y-84847714D01*
X158959361Y-84813500D01*
X158959356Y-84813500D01*
X158740644Y-84813500D01*
X158740639Y-84813500D01*
X158524623Y-84847714D01*
X158316619Y-84915297D01*
X158316616Y-84915298D01*
X158121739Y-85014595D01*
X157944806Y-85143142D01*
X157790142Y-85297806D01*
X157661595Y-85474739D01*
X157562298Y-85669616D01*
X157562297Y-85669619D01*
X157494714Y-85877623D01*
X157460500Y-86093638D01*
X156790500Y-86093638D01*
X156790500Y-86088266D01*
X156760548Y-85860762D01*
X156701158Y-85639113D01*
X156642246Y-85496887D01*
X156613349Y-85427123D01*
X156613346Y-85427117D01*
X156613344Y-85427112D01*
X156498611Y-85228388D01*
X156498608Y-85228385D01*
X156498607Y-85228382D01*
X156358918Y-85046338D01*
X156358911Y-85046330D01*
X156196670Y-84884089D01*
X156196661Y-84884081D01*
X156014617Y-84744392D01*
X155815890Y-84629657D01*
X155815876Y-84629650D01*
X155603887Y-84541842D01*
X155554317Y-84528560D01*
X155382238Y-84482452D01*
X155344215Y-84477446D01*
X155154741Y-84452500D01*
X155154734Y-84452500D01*
X154925266Y-84452500D01*
X154925258Y-84452500D01*
X154708715Y-84481009D01*
X154697762Y-84482452D01*
X154604076Y-84507554D01*
X154476112Y-84541842D01*
X154264123Y-84629650D01*
X154264109Y-84629657D01*
X154065382Y-84744392D01*
X153883338Y-84884081D01*
X153721081Y-85046338D01*
X153581392Y-85228382D01*
X153466657Y-85427109D01*
X153466650Y-85427123D01*
X153378842Y-85639112D01*
X153319453Y-85860759D01*
X153319451Y-85860770D01*
X153289500Y-86088258D01*
X146279996Y-86088258D01*
X146418611Y-85907612D01*
X146533344Y-85708888D01*
X146621158Y-85496887D01*
X146680548Y-85275238D01*
X146710500Y-85047734D01*
X146710500Y-84818266D01*
X146680548Y-84590762D01*
X146621158Y-84369113D01*
X146533344Y-84157112D01*
X146418611Y-83958388D01*
X146418608Y-83958385D01*
X146418607Y-83958382D01*
X146370033Y-83895080D01*
X146314773Y-83823065D01*
X190349500Y-83823065D01*
X190349500Y-84176934D01*
X190389116Y-84528545D01*
X190389119Y-84528559D01*
X190467859Y-84873543D01*
X190467860Y-84873545D01*
X190584731Y-85207545D01*
X190738262Y-85526355D01*
X190738264Y-85526358D01*
X190926527Y-85825976D01*
X191007751Y-85927828D01*
X191139984Y-86093644D01*
X191147153Y-86102633D01*
X191397367Y-86352847D01*
X191674024Y-86573473D01*
X191973642Y-86761736D01*
X192292456Y-86915269D01*
X192626456Y-87032140D01*
X192971440Y-87110881D01*
X192971449Y-87110882D01*
X192971454Y-87110883D01*
X193205861Y-87137293D01*
X193323066Y-87150499D01*
X193323069Y-87150500D01*
X193323072Y-87150500D01*
X193676931Y-87150500D01*
X193676932Y-87150499D01*
X193856635Y-87130252D01*
X194028545Y-87110883D01*
X194028548Y-87110882D01*
X194028560Y-87110881D01*
X194373544Y-87032140D01*
X194707544Y-86915269D01*
X195026358Y-86761736D01*
X195325976Y-86573473D01*
X195602633Y-86352847D01*
X195852847Y-86102633D01*
X196073473Y-85825976D01*
X196261736Y-85526358D01*
X196415269Y-85207544D01*
X196532140Y-84873544D01*
X196610881Y-84528560D01*
X196650500Y-84176928D01*
X196650500Y-83823072D01*
X196611214Y-83474392D01*
X196610883Y-83471454D01*
X196610882Y-83471449D01*
X196610881Y-83471440D01*
X196532140Y-83126456D01*
X196415269Y-82792456D01*
X196261736Y-82473642D01*
X196073473Y-82174024D01*
X195852847Y-81897367D01*
X195602633Y-81647153D01*
X195325976Y-81426527D01*
X195026358Y-81238264D01*
X195026355Y-81238262D01*
X194707545Y-81084731D01*
X194373545Y-80967860D01*
X194373543Y-80967859D01*
X194107300Y-80907091D01*
X194028560Y-80889119D01*
X194028557Y-80889118D01*
X194028545Y-80889116D01*
X193676934Y-80849500D01*
X193676928Y-80849500D01*
X193323072Y-80849500D01*
X193323065Y-80849500D01*
X192971454Y-80889116D01*
X192971440Y-80889119D01*
X192626456Y-80967859D01*
X192626454Y-80967860D01*
X192292454Y-81084731D01*
X191973644Y-81238262D01*
X191674025Y-81426526D01*
X191397367Y-81647152D01*
X191147152Y-81897367D01*
X190926526Y-82174025D01*
X190738262Y-82473644D01*
X190584731Y-82792454D01*
X190467860Y-83126454D01*
X190467859Y-83126456D01*
X190389119Y-83471440D01*
X190389116Y-83471454D01*
X190349500Y-83823065D01*
X146314773Y-83823065D01*
X146307439Y-83813507D01*
X146278919Y-83776339D01*
X146278918Y-83776338D01*
X146278911Y-83776330D01*
X146116670Y-83614089D01*
X146116661Y-83614081D01*
X145934617Y-83474392D01*
X145735890Y-83359657D01*
X145735876Y-83359650D01*
X145523887Y-83271842D01*
X145302238Y-83212452D01*
X145264215Y-83207446D01*
X145074741Y-83182500D01*
X145074734Y-83182500D01*
X144845266Y-83182500D01*
X144845258Y-83182500D01*
X144628715Y-83211009D01*
X144617762Y-83212452D01*
X144524076Y-83237554D01*
X144396112Y-83271842D01*
X144184123Y-83359650D01*
X144184109Y-83359657D01*
X143985382Y-83474392D01*
X143803338Y-83614081D01*
X143641081Y-83776338D01*
X143501392Y-83958382D01*
X143386657Y-84157109D01*
X143386650Y-84157123D01*
X143298842Y-84369112D01*
X143239453Y-84590759D01*
X143239451Y-84590770D01*
X143209500Y-84818258D01*
X126390499Y-84818258D01*
X126360548Y-84590762D01*
X126301158Y-84369113D01*
X126213344Y-84157112D01*
X126098611Y-83958388D01*
X126098608Y-83958385D01*
X126098607Y-83958382D01*
X125987439Y-83813507D01*
X125958919Y-83776339D01*
X125958918Y-83776338D01*
X125958911Y-83776330D01*
X125796670Y-83614089D01*
X125796661Y-83614081D01*
X125614617Y-83474392D01*
X125415890Y-83359657D01*
X125415876Y-83359650D01*
X125203887Y-83271842D01*
X124982238Y-83212452D01*
X124944215Y-83207446D01*
X124754741Y-83182500D01*
X124754734Y-83182500D01*
X124525266Y-83182500D01*
X124525258Y-83182500D01*
X124308715Y-83211009D01*
X124297762Y-83212452D01*
X124204076Y-83237554D01*
X124076112Y-83271842D01*
X123864123Y-83359650D01*
X123864109Y-83359657D01*
X123665382Y-83474392D01*
X123483338Y-83614081D01*
X123321081Y-83776338D01*
X123181392Y-83958382D01*
X123066657Y-84157109D01*
X123066650Y-84157123D01*
X122978842Y-84369112D01*
X122919453Y-84590759D01*
X122919451Y-84590770D01*
X122889500Y-84818258D01*
X109544759Y-84818258D01*
X109610881Y-84528560D01*
X109650500Y-84176928D01*
X109650500Y-83823072D01*
X109611214Y-83474392D01*
X109610883Y-83471454D01*
X109610882Y-83471449D01*
X109610881Y-83471440D01*
X109532140Y-83126456D01*
X109415269Y-82792456D01*
X109261736Y-82473642D01*
X109073473Y-82174024D01*
X108852847Y-81897367D01*
X108602633Y-81647153D01*
X108325976Y-81426527D01*
X108026358Y-81238264D01*
X108026355Y-81238262D01*
X107707545Y-81084731D01*
X107373545Y-80967860D01*
X107373543Y-80967859D01*
X107107300Y-80907091D01*
X107028560Y-80889119D01*
X107028557Y-80889118D01*
X107028545Y-80889116D01*
X106676934Y-80849500D01*
X106676928Y-80849500D01*
X106323072Y-80849500D01*
X106323065Y-80849500D01*
X105971454Y-80889116D01*
X105971440Y-80889119D01*
X105626456Y-80967859D01*
X105626454Y-80967860D01*
X105292454Y-81084731D01*
X104973644Y-81238262D01*
X104674025Y-81426526D01*
X104397367Y-81647152D01*
X104147152Y-81897367D01*
X103926526Y-82174025D01*
X103738262Y-82473644D01*
X103584731Y-82792454D01*
X103467860Y-83126454D01*
X103467859Y-83126456D01*
X103389119Y-83471440D01*
X103389116Y-83471454D01*
X103349500Y-83823065D01*
X103009192Y-83823065D01*
X103009662Y-83813508D01*
X103009662Y-83813507D01*
X103017052Y-83663072D01*
X103018245Y-83650962D01*
X103044437Y-83474389D01*
X103066849Y-83323296D01*
X103069218Y-83311385D01*
X103149710Y-82990043D01*
X103153240Y-82978411D01*
X103264835Y-82666525D01*
X103269476Y-82655318D01*
X103411124Y-82355828D01*
X103416840Y-82345136D01*
X103587145Y-82060998D01*
X103593888Y-82050905D01*
X103791232Y-81784818D01*
X103798935Y-81775433D01*
X104021405Y-81529975D01*
X104029975Y-81521405D01*
X104275433Y-81298935D01*
X104284818Y-81291232D01*
X104550905Y-81093888D01*
X104560998Y-81087145D01*
X104845136Y-80916840D01*
X104855828Y-80911124D01*
X105155318Y-80769476D01*
X105166525Y-80764835D01*
X105478412Y-80653239D01*
X105490043Y-80649710D01*
X105811385Y-80569218D01*
X105823296Y-80566849D01*
X106150962Y-80518244D01*
X106163068Y-80517052D01*
X106496967Y-80500648D01*
X106503051Y-80500500D01*
X106565892Y-80500500D01*
X193434108Y-80500500D01*
X193496949Y-80500500D01*
X193503032Y-80500648D01*
G37*
%TD.AperFunction*%
%TD*%
M02*
