%TF.GenerationSoftware,KiCad,Pcbnew,9.0.7*%
%TF.CreationDate,2026-03-23T03:43:43-04:00*%
%TF.ProjectId,cristar_sensor_board,63726973-7461-4725-9f73-656e736f725f,rev?*%
%TF.SameCoordinates,Original*%
%TF.FileFunction,Soldermask,Bot*%
%TF.FilePolarity,Negative*%
%FSLAX46Y46*%
G04 Gerber Fmt 4.6, Leading zero omitted, Abs format (unit mm)*
G04 Created by KiCad (PCBNEW 9.0.7) date 2026-03-23 03:43:43*
%MOMM*%
%LPD*%
G01*
G04 APERTURE LIST*
G04 Aperture macros list*
%AMRoundRect*
0 Rectangle with rounded corners*
0 $1 Rounding radius*
0 $2 $3 $4 $5 $6 $7 $8 $9 X,Y pos of 4 corners*
0 Add a 4 corners polygon primitive as box body*
4,1,4,$2,$3,$4,$5,$6,$7,$8,$9,$2,$3,0*
0 Add four circle primitives for the rounded corners*
1,1,$1+$1,$2,$3*
1,1,$1+$1,$4,$5*
1,1,$1+$1,$6,$7*
1,1,$1+$1,$8,$9*
0 Add four rect primitives between the rounded corners*
20,1,$1+$1,$2,$3,$4,$5,0*
20,1,$1+$1,$4,$5,$6,$7,0*
20,1,$1+$1,$6,$7,$8,$9,0*
20,1,$1+$1,$8,$9,$2,$3,0*%
G04 Aperture macros list end*
%ADD10C,1.700000*%
%ADD11C,1.982000*%
%ADD12C,2.692400*%
%ADD13RoundRect,0.102000X-0.736600X-0.736600X0.736600X-0.736600X0.736600X0.736600X-0.736600X0.736600X0*%
%ADD14C,1.677200*%
G04 APERTURE END LIST*
D10*
%TO.C,U2*%
X128450000Y-106523000D03*
X130990000Y-106523000D03*
X133530000Y-106523000D03*
X136070000Y-106523000D03*
X138610000Y-106523000D03*
X141150000Y-106523000D03*
%TD*%
D11*
%TO.C,U1*%
X158850000Y-103983000D03*
X161390000Y-103983000D03*
X163930000Y-103983000D03*
X166470000Y-103983000D03*
X169010000Y-103983000D03*
X171550000Y-103983000D03*
X158850000Y-86203000D03*
X161390000Y-86203000D03*
X163930000Y-86203000D03*
X166470000Y-86203000D03*
X169010000Y-86203000D03*
X171550000Y-86203000D03*
%TD*%
D12*
%TO.C,J1*%
X116916500Y-115000000D03*
X183083500Y-115000000D03*
D13*
X125870000Y-116016000D03*
D14*
X125870000Y-113476000D03*
X128410000Y-116016000D03*
X128410000Y-113476000D03*
X130950000Y-116016000D03*
X130950000Y-113476000D03*
X133490000Y-116016000D03*
X133490000Y-113476000D03*
X136030000Y-116016000D03*
X136030000Y-113476000D03*
X138570000Y-116016000D03*
X138570000Y-113476000D03*
X141110000Y-116016000D03*
X141110000Y-113476000D03*
X143650000Y-116016000D03*
X143650000Y-113476000D03*
X146190000Y-116016000D03*
X146190000Y-113476000D03*
X148730000Y-116016000D03*
X148730000Y-113476000D03*
X151270000Y-116016000D03*
X151270000Y-113476000D03*
X153810000Y-116016000D03*
X153810000Y-113476000D03*
X156350000Y-116016000D03*
X156350000Y-113476000D03*
X158890000Y-116016000D03*
X158890000Y-113476000D03*
X161430000Y-116016000D03*
X161430000Y-113476000D03*
X163970000Y-116016000D03*
X163970000Y-113476000D03*
X166510000Y-116016000D03*
X166510000Y-113476000D03*
X169050000Y-116016000D03*
X169050000Y-113476000D03*
X171590000Y-116016000D03*
X171590000Y-113476000D03*
X174130000Y-116016000D03*
X174130000Y-113476000D03*
%TD*%
M02*
