M48
; DRILL file {KiCad 9.0.7} date 2026-03-23T03:43:11-0400
; FORMAT={-:-/ absolute / inch / decimal}
; #@! TF.CreationDate,2026-03-23T03:43:11-04:00
; #@! TF.GenerationSoftware,Kicad,Pcbnew,9.0.7
; #@! TF.FileFunction,Plated,1,2,PTH
FMAT,2
INCH
; #@! TA.AperFunction,Plated,PTH,ComponentDrill
T1C0.0380
; #@! TA.AperFunction,Plated,PTH,ComponentDrill
T2C0.0394
%
G90
G05
T1
X4.9555Y-4.4676
X4.9555Y-4.5676
X5.0555Y-4.4676
X5.0555Y-4.5676
X5.1555Y-4.4676
X5.1555Y-4.5676
X5.2555Y-4.4676
X5.2555Y-4.5676
X5.3555Y-4.4676
X5.3555Y-4.5676
X5.4555Y-4.4676
X5.4555Y-4.5676
X5.5555Y-4.4676
X5.5555Y-4.5676
X5.6555Y-4.4676
X5.6555Y-4.5676
X5.7555Y-4.4676
X5.7555Y-4.5676
X5.8555Y-4.4676
X5.8555Y-4.5676
X5.9555Y-4.4676
X5.9555Y-4.5676
X6.0555Y-4.4676
X6.0555Y-4.5676
X6.1555Y-4.4676
X6.1555Y-4.5676
X6.2555Y-4.4676
X6.2555Y-4.5676
X6.3555Y-4.4676
X6.3555Y-4.5676
X6.4555Y-4.4676
X6.4555Y-4.5676
X6.5555Y-4.4676
X6.5555Y-4.5676
X6.6555Y-4.4676
X6.6555Y-4.5676
X6.7555Y-4.4676
X6.7555Y-4.5676
X6.8555Y-4.4676
X6.8555Y-4.5676
T2
X5.0571Y-4.1938
X5.1571Y-4.1938
X5.2571Y-4.1938
X5.3571Y-4.1938
X5.4571Y-4.1938
X5.5571Y-4.1938
X6.2539Y-3.3938
X6.2539Y-4.0938
X6.3539Y-3.3938
X6.3539Y-4.0938
X6.4539Y-3.3938
X6.4539Y-4.0938
X6.5539Y-3.3938
X6.5539Y-4.0938
X6.6539Y-3.3938
X6.6539Y-4.0938
X6.7539Y-3.3938
X6.7539Y-4.0938
M30
